<svg width="126" height="32" viewBox="0 0 126 32" fill="none" xmlns="http://www.w3.org/2000/svg">
<g clip-path="url(#clip0_220_665)">
<path d="M15.4199 4.03102C17.0541 4.03102 18.6722 4.35383 20.182 4.98102C21.6918 5.60822 23.0636 6.52751 24.2191 7.68642C25.3747 8.84533 26.2913 10.2212 26.9166 11.7353C27.542 13.2495 27.8639 14.8724 27.8639 16.5114C27.8639 18.1503 27.542 19.7732 26.9166 21.2874C26.2913 22.8016 25.3747 24.1774 24.2191 25.3363C23.0636 26.4952 21.6918 27.4145 20.182 28.0417C18.6722 28.6689 17.0541 28.9917 15.4199 28.9917V31.9761C17.4449 31.9761 19.45 31.5761 21.3208 30.7989C23.1916 30.0217 24.8914 28.8826 26.3233 27.4466C27.7551 26.0105 28.8909 24.3057 29.6658 22.4294C30.4407 20.5532 30.8396 18.5422 30.8396 16.5114C30.8396 14.4805 30.4407 12.4695 29.6658 10.5933C28.8909 8.71699 27.7551 7.01218 26.3233 5.57615C24.8914 4.14012 23.1916 3.00099 21.3208 2.22381C19.45 1.44664 17.4449 1.04663 15.4199 1.04663V4.03102Z" fill="url(#paint0_linear_220_665)"/>
<path d="M0.00976563 16.5114C0.0141962 20.6115 1.64018 24.5425 4.53096 27.4417C7.42175 30.341 11.3412 31.9717 15.4294 31.9761V28.9917C12.1291 28.9942 8.96292 27.6817 6.62748 25.3429C4.29204 23.0042 2.97862 19.8307 2.97616 16.5207C2.97369 13.2107 4.28238 10.0353 6.61434 7.69308C8.94629 5.35082 12.1105 4.03355 15.4108 4.03108V1.04669C11.3245 1.05163 7.40722 2.68313 4.5195 5.58279C1.63178 8.48245 0.00976265 12.4131 0.00976563 16.5114Z" fill="url(#paint1_linear_220_665)"/>
<path d="M10.6904 15.6032C12.0271 14.5124 13.6976 13.9169 15.4208 13.9169C17.1441 13.9169 18.8146 14.5124 20.1513 15.6032C20.9239 16.2285 21.5649 17.0018 22.0368 17.8779C22.5087 18.754 22.8021 19.7155 22.9001 20.7065C22.9242 20.9527 22.9373 21.2026 22.9373 21.4526C22.9348 23.4512 22.1419 25.3672 20.7326 26.7803C19.3234 28.1933 17.4127 28.988 15.4199 28.99V31.9744C17.5231 31.9773 19.5785 31.3455 21.319 30.1613C23.0595 28.977 24.4044 27.295 25.1791 25.334C25.9538 23.3729 26.1223 21.2235 25.6628 19.1651C25.2033 17.1067 24.137 15.2346 22.6025 13.792C20.8403 12.1239 18.5552 11.1212 16.1377 10.9552C13.7201 10.7892 11.3201 11.4701 9.34766 12.8818C9.56373 13.8864 10.0251 14.8215 10.6904 15.6032Z" fill="url(#paint2_linear_220_665)"/>
<path d="M5.51825 15.0417C5.69484 15.5475 5.90997 16.0389 6.16175 16.5116C6.70272 17.5244 7.40434 18.4423 8.23914 19.2292C10.0014 20.8973 12.2864 21.9 14.704 22.066C17.1215 22.2321 19.5215 21.5511 21.494 20.1394C21.2772 19.1356 20.8158 18.2013 20.1512 17.4199C18.8146 18.5107 17.144 19.1062 15.4208 19.1062C13.6976 19.1062 12.027 18.5107 10.6904 17.4199C9.53535 16.4795 8.68268 15.2181 8.23914 13.7939C8.09032 13.3129 7.99062 12.8179 7.94158 12.3166C7.9174 12.0704 7.90438 11.8205 7.90438 11.5705C7.90684 9.57223 8.69943 7.65649 10.1083 6.24348C11.5172 4.83047 13.4274 4.03556 15.4199 4.03309V1.04871C13.745 1.04843 12.0945 1.45045 10.6064 2.22112C9.11822 2.99179 7.83576 4.1087 6.86629 5.4784C5.89682 6.8481 5.26853 8.43075 5.034 10.0939C4.79947 11.7571 4.96552 13.4524 5.51825 15.038V15.0417Z" fill="url(#paint3_linear_220_665)"/>
<path d="M53.265 6.26208C54.7355 6.26208 55.9134 6.74207 56.7987 7.70205C57.6839 8.66202 58.1247 9.94904 58.121 11.5631V19.4922H54.805V11.7963C54.805 11.024 54.619 10.4234 54.247 9.99444C53.8751 9.56543 53.3401 9.35092 52.642 9.35092C51.8894 9.35092 51.3036 9.59962 50.8845 10.097C50.4654 10.5944 50.2559 11.315 50.2559 12.2588V19.4922H46.9454V11.7963C46.9454 11.024 46.7594 10.4234 46.3875 9.99444C46.0155 9.56543 45.4849 9.35092 44.7955 9.35092C44.4645 9.33724 44.1348 9.39837 43.8305 9.52978C43.5263 9.66118 43.2554 9.85951 43.038 10.1101C42.6015 10.6149 42.3833 11.3312 42.3833 12.2588V19.4922H39.0654V6.62208H42.3759V7.98557C43.1458 6.83658 44.3349 6.26208 45.943 6.26208C47.5511 6.26208 48.7147 6.87948 49.4338 8.11427C50.2782 6.87948 51.5553 6.26208 53.265 6.26208Z" fill="white"/>
<path d="M71.8718 17.8955C70.5712 19.2012 68.9631 19.8534 67.0475 19.8522C65.1319 19.8509 63.52 19.1987 62.212 17.8955C60.9151 16.5923 60.2666 14.9795 60.2666 13.0571C60.2725 11.9397 60.5525 10.8409 61.0819 9.85773C61.6113 8.87454 62.3739 8.03715 63.3024 7.41947C64.2308 6.80179 65.2966 6.42279 66.4056 6.31593C67.5147 6.20907 68.6329 6.37763 69.6616 6.80673C70.6903 7.23584 71.5979 7.91229 72.3043 8.7764C73.0107 9.64052 73.4942 10.6657 73.712 11.7616C73.9299 12.8574 73.8755 13.9902 73.5536 15.0599C73.2317 16.1297 72.6522 17.1035 71.8662 17.8955H71.8718ZM64.5572 15.605C65.2269 16.249 66.1188 16.6085 67.0465 16.6085C67.9743 16.6085 68.8662 16.249 69.5359 15.605C70.1802 14.9139 70.5386 14.0032 70.5386 13.0571C70.5386 12.111 70.1802 11.2002 69.5359 10.5092C68.8669 9.86388 67.9747 9.50347 67.0465 9.50347C66.1183 9.50347 65.2262 9.86388 64.5572 10.5092C63.9296 11.2085 63.5823 12.1162 63.5823 13.0571C63.5823 13.998 63.9296 14.9056 64.5572 15.605Z" fill="white"/>
<path d="M87.1172 17.8956C85.8178 19.2012 84.2097 19.8535 82.2929 19.8522C80.376 19.851 78.7679 19.1988 77.4685 17.8956C76.1679 16.5924 75.5176 14.9796 75.5176 13.0571C75.5234 11.9397 75.8034 10.841 76.3329 9.85779C76.8623 8.8746 77.6249 8.03721 78.5533 7.41953C79.4818 6.80185 80.5476 6.42286 81.6566 6.316C82.7656 6.20914 83.8839 6.37769 84.9126 6.80679C85.9413 7.2359 86.8489 7.91235 87.5553 8.77647C88.2617 9.64058 88.7451 10.6658 88.963 11.7616C89.1809 12.8575 89.1265 13.9902 88.8045 15.06C88.4826 16.1297 87.9031 17.1036 87.1172 17.8956ZM79.7951 15.6051C80.4651 16.2492 81.3573 16.6088 82.2854 16.6088C83.2135 16.6088 84.1057 16.2492 84.7757 15.6051C85.42 14.914 85.7784 14.0032 85.7784 13.0571C85.7784 12.111 85.42 11.2003 84.7757 10.5092C84.1061 9.86425 83.2138 9.50407 82.2854 9.50407C81.3571 9.50407 80.4647 9.86425 79.7951 10.5092C79.1675 11.2086 78.8203 12.1162 78.8203 13.0571C78.8203 13.9981 79.1675 14.9057 79.7951 15.6051Z" fill="white"/>
<path d="M98.5639 6.26208C99.9848 6.26208 101.14 6.73398 102.029 7.6778C102.954 8.63902 103.416 9.94469 103.414 11.5948V19.4978H100.104V12.0014C100.104 11.1608 99.8769 10.5086 99.4231 10.0448C98.9693 9.58097 98.3494 9.34968 97.5633 9.35092C96.6954 9.35092 96.0067 9.62076 95.4971 10.1604C94.9875 10.7001 94.7352 11.4941 94.7401 12.5423V19.4922H91.4297V6.62208H94.7401V8.0639C95.5274 6.86269 96.802 6.26208 98.5639 6.26208Z" fill="white"/>
<path d="M115.991 8.14039V6.62208H119.302V19.4922H115.991V17.9739C114.999 19.2261 113.605 19.8522 111.808 19.8522C110.097 19.8522 108.626 19.2 107.393 17.8956C106.161 16.5912 105.553 14.9784 105.571 13.0572C105.571 11.1695 106.178 9.56481 107.393 8.24297C108.608 6.92114 110.08 6.26084 111.808 6.26209C113.605 6.26209 114.999 6.88819 115.991 8.14039ZM109.884 15.6834C110.573 16.3296 111.481 16.6891 112.424 16.6891C113.367 16.6891 114.276 16.3296 114.965 15.6834C115.305 15.3389 115.572 14.9283 115.748 14.4767C115.925 14.025 116.008 13.542 115.991 13.0572C115.991 11.994 115.649 11.1273 114.965 10.457C114.283 9.79647 113.372 9.42727 112.424 9.42727C111.476 9.42727 110.565 9.79647 109.884 10.457C109.217 11.126 108.883 11.9927 108.883 13.0572C108.866 13.5398 108.946 14.021 109.118 14.4721C109.289 14.9233 109.55 15.3352 109.884 15.6834Z" fill="white"/>
<path d="M123.947 5.07751C123.412 5.06933 122.901 4.8525 122.523 4.47298C122.144 4.09345 121.928 3.58107 121.92 3.0444C121.918 2.77577 121.971 2.5096 122.075 2.26185C122.178 2.0141 122.331 1.78985 122.523 1.60256C122.704 1.40622 122.925 1.24995 123.17 1.14366C123.415 1.03738 123.68 0.983393 123.947 0.985166C124.218 0.981471 124.487 1.03447 124.737 1.14076C124.987 1.24705 125.212 1.40432 125.398 1.60256C125.59 1.78985 125.742 2.0141 125.846 2.26185C125.949 2.5096 126.002 2.77577 126 3.0444C126.002 3.31119 125.95 3.57558 125.846 3.8213C125.743 4.06702 125.59 4.28886 125.398 4.47317C125.21 4.66797 124.984 4.8221 124.735 4.92605C124.485 5.02999 124.217 5.08153 123.947 5.07751ZM125.621 19.4921H122.311V6.62193H125.621V19.4921Z" fill="white"/>
<path d="M42.0822 24.2338V25.2186H39.9956V26.4627H42.0227V27.4476H39.9956V29.462H38.9727V24.2394L42.0822 24.2338Z" fill="white"/>
<path d="M45.8086 29.4564V24.2338H46.8352V29.4564H45.8086Z" fill="white"/>
<path d="M53.7914 27.4196V24.2338H54.818V29.4564H54.0369L51.8051 26.2631V29.4564H50.7822V24.2338H51.5633L53.7914 27.4196Z" fill="white"/>
<path d="M63.2242 29.4564H62.1083L61.7959 28.5238H59.7203L59.4079 29.4564H58.292L60.1146 24.2338H61.3867L63.2242 29.4564ZM60.7618 25.4201L60.0477 27.5539H61.476L60.7618 25.4201Z" fill="white"/>
<path d="M69.718 27.4196V24.2338H70.7446V29.4564H69.9635L67.7317 26.2631V29.4564H66.7051V24.2338H67.4862L69.718 27.4196Z" fill="white"/>
<path d="M77.1571 29.5607C76.4389 29.5607 75.7502 29.2746 75.2423 28.7653C74.7345 28.256 74.4492 27.5652 74.4492 26.845C74.4492 26.1247 74.7345 25.4339 75.2423 24.9246C75.7502 24.4153 76.4389 24.1292 77.1571 24.1292C77.6123 24.1259 78.0606 24.2402 78.4589 24.4612C78.844 24.6713 79.1653 24.982 79.3888 25.3602L78.5036 25.875C78.3737 25.6425 78.1801 25.4522 77.9457 25.3266C77.6194 25.1587 77.2495 25.0954 76.8862 25.1455C76.5229 25.1955 76.1838 25.3565 75.9147 25.6064C75.6175 25.9487 75.4538 26.3873 75.4538 26.8412C75.4538 27.2951 75.6175 27.7337 75.9147 28.076C76.1845 28.3261 76.5242 28.487 76.8881 28.537C77.252 28.5871 77.6225 28.5238 77.9494 28.3558C78.1803 28.2328 78.3704 28.0448 78.4962 27.8149L79.3814 28.3297C79.1579 28.7079 78.8366 29.0186 78.4515 29.2287C78.0554 29.4485 77.6097 29.5628 77.1571 29.5607Z" fill="white"/>
<path d="M84.0315 27.3002V28.4716H86.2261V29.4564H83.0049V24.2338H86.1889V25.2186H84.0315V26.3378H86.0029V27.3077L84.0315 27.3002Z" fill="white"/>
</g>
<defs>
<linearGradient id="paint0_linear_220_665" x1="33.2889" y1="26.3617" x2="14.6994" y2="14.7323" gradientUnits="userSpaceOnUse">
<stop stop-color="#00FFFF"/>
<stop offset="1" stop-color="#1391FF"/>
</linearGradient>
<linearGradient id="paint1_linear_220_665" x1="16.9638" y1="20.9973" x2="4.41217" y2="8.96581" gradientUnits="userSpaceOnUse">
<stop stop-color="#5C42D4"/>
<stop offset="0.99" stop-color="#1213C2"/>
</linearGradient>
<linearGradient id="paint2_linear_220_665" x1="16.0002" y1="8.35671" x2="19.6117" y2="26.6489" gradientUnits="userSpaceOnUse">
<stop stop-color="#EBA1FC"/>
<stop offset="1" stop-color="#5C42D4"/>
</linearGradient>
<linearGradient id="paint3_linear_220_665" x1="11.5961" y1="23.7002" x2="15.0599" y2="5.89651" gradientUnits="userSpaceOnUse">
<stop stop-color="#00FFAB"/>
<stop offset="1" stop-color="#1391FF"/>
</linearGradient>
<clipPath id="clip0_220_665">
<rect width="126" height="30.9929" fill="white" transform="translate(0 0.985229)"/>
</clipPath>
</defs>
</svg>
