<svg width="1440" height="818" viewBox="0 0 1440 818" fill="none" xmlns="http://www.w3.org/2000/svg">
<g clip-path="url(#clip0_37_31)">
<rect width="1440" height="818" fill="#060D10"/>
<g filter="url(#filter0_f_37_31)">
<rect width="445.002" height="227.087" transform="matrix(-0.78665 -0.617399 0.685254 -0.728304 1522.65 746)" fill="#BE0B0A" fill-opacity="0.3"/>
</g>
<g filter="url(#filter1_f_37_31)">
<rect x="-313.184" y="437.11" width="402" height="208" transform="rotate(-4.92828 -313.184 437.11)" fill="#3D3AC9" fill-opacity="0.3"/>
</g>
<g filter="url(#filter2_f_37_31)">
<rect x="627" y="575.765" width="402" height="208" transform="rotate(-77.0433 627 575.765)" fill="#3D3AC9" fill-opacity="0.3"/>
</g>
<g opacity="0.1" clip-path="url(#clip1_37_31)">
<path d="M884.319 240.328C886.429 240.693 888.539 239.722 889.045 238.205C889.551 236.688 888.201 235.171 886.091 234.807C883.982 234.443 881.872 235.414 881.366 236.931C880.944 238.447 882.21 239.964 884.319 240.328Z" fill="white" fill-opacity="0.2"/>
<path d="M1027.1 441.774C1029.21 442.138 1031.32 441.167 1031.83 439.65C1032.33 438.133 1030.98 436.616 1028.87 436.252C1026.77 435.888 1024.66 436.859 1024.15 438.376C1023.73 439.893 1024.99 441.409 1027.1 441.774Z" fill="white" fill-opacity="0.2"/>
<path d="M1264.56 680.417C1266.67 680.781 1268.78 679.81 1269.28 678.293C1269.79 676.777 1268.44 675.26 1266.33 674.896C1264.22 674.531 1262.11 675.502 1261.6 677.019C1261.1 678.536 1262.45 680.053 1264.56 680.417Z" fill="white" fill-opacity="0.2"/>
<path d="M1058.49 394.206C1060.6 394.57 1062.71 393.599 1063.22 392.082C1063.72 390.565 1062.37 389.048 1060.26 388.684C1058.15 388.32 1056.04 389.291 1055.54 390.808C1055.11 392.325 1056.38 393.842 1058.49 394.206Z" fill="white" fill-opacity="0.2"/>
<path d="M1363.45 605.482C1365.56 605.846 1367.67 604.875 1368.17 603.358C1368.68 601.841 1367.33 600.324 1365.22 599.96C1363.11 599.596 1361 600.567 1360.49 602.084C1360.07 603.601 1361.34 605.118 1363.45 605.482Z" fill="white" fill-opacity="0.2"/>
<path d="M995.536 273.882C997.646 274.246 999.755 273.275 1000.26 271.758C1000.77 270.241 999.418 268.724 997.308 268.36C995.199 267.996 993.089 268.967 992.583 270.484C992.161 272.001 993.427 273.518 995.536 273.882Z" fill="white" fill-opacity="0.2"/>
<path d="M818.587 616.703C820.696 617.067 822.806 616.097 823.312 614.58C823.818 613.063 822.468 611.546 820.359 611.182C818.249 610.818 816.139 611.789 815.633 613.305C815.211 614.822 816.477 616.339 818.587 616.703Z" fill="white" fill-opacity="0.2"/>
<path d="M1124.23 787.57C1126.34 787.934 1128.45 786.964 1128.95 785.447C1129.46 783.93 1128.11 782.413 1126 782.049C1123.89 781.685 1121.78 782.656 1121.27 784.172C1120.85 785.689 1122.12 787.206 1124.23 787.57Z" fill="white" fill-opacity="0.2"/>
<path d="M358.11 55.0798C360.22 55.4438 362.33 54.473 362.836 52.9561C363.342 51.4391 361.992 49.9222 359.883 49.5582C357.773 49.1941 355.663 50.1649 355.157 51.6819C354.735 53.1988 356.001 54.7157 358.11 55.0798Z" fill="white" fill-opacity="0.2"/>
<path d="M339.715 196.156C341.824 196.52 343.934 195.549 344.44 194.032C344.947 192.515 343.596 190.998 341.487 190.634C339.377 190.27 337.268 191.241 336.761 192.758C336.255 194.275 337.605 195.792 339.715 196.156Z" fill="white" fill-opacity="0.2"/>
<path d="M858.512 341.595C860.622 341.959 862.731 340.988 863.238 339.471C863.744 337.954 862.394 336.437 860.284 336.073C858.175 335.709 856.065 336.68 855.559 338.197C855.052 339.714 856.403 341.231 858.512 341.595Z" fill="white" fill-opacity="0.2"/>
<path d="M318.533 339.476C320.643 339.84 322.752 338.869 323.259 337.352C323.765 335.835 322.415 334.318 320.305 333.954C318.196 333.59 316.086 334.561 315.58 336.078C315.073 337.595 316.424 339.112 318.533 339.476Z" fill="white" fill-opacity="0.2"/>
<path d="M229.509 466.469C231.619 466.833 233.728 465.862 234.235 464.345C234.741 462.828 233.391 461.311 231.281 460.947C229.172 460.583 227.062 461.554 226.556 463.071C226.049 464.588 227.4 466.105 229.509 466.469Z" fill="white" fill-opacity="0.2"/>
<path d="M436.334 310.044C438.443 310.408 440.553 309.438 441.059 307.921C441.565 306.404 440.215 304.887 438.106 304.523C435.996 304.159 433.886 305.129 433.38 306.646C432.958 308.163 434.224 309.68 436.334 310.044Z" fill="white" fill-opacity="0.2"/>
<path d="M455.995 230.861C458.104 231.225 460.214 230.254 460.72 228.737C461.226 227.221 459.876 225.704 457.767 225.34C455.657 224.975 453.547 225.946 453.041 227.463C452.535 228.98 453.885 230.497 455.995 230.861Z" fill="white" fill-opacity="0.2"/>
<path d="M492.858 271.27C494.968 271.634 497.077 270.664 497.583 269.147C498.09 267.63 496.74 266.113 494.63 265.749C492.52 265.385 490.411 266.356 489.905 267.873C489.483 269.389 490.748 270.906 492.858 271.27Z" fill="white" fill-opacity="0.2"/>
<path d="M356.838 433.037C358.948 433.401 361.057 432.43 361.563 430.913C362.07 429.397 360.72 427.88 358.61 427.516C356.5 427.152 354.391 428.122 353.885 429.639C353.463 431.156 354.728 432.673 356.838 433.037Z" fill="white" fill-opacity="0.2"/>
<path d="M1304.72 495.535C1306.83 495.899 1308.94 494.929 1309.45 493.412C1309.95 491.895 1308.6 490.378 1306.49 490.014C1304.38 489.65 1302.27 490.621 1301.77 492.138C1301.35 493.654 1302.61 495.171 1304.72 495.535Z" fill="white" fill-opacity="0.2"/>
<path d="M990.649 423.204C992.758 423.568 994.868 422.597 995.374 421.08C995.88 419.564 994.53 418.047 992.421 417.682C990.311 417.318 988.201 418.289 987.695 419.806C987.189 421.323 988.539 422.84 990.649 423.204Z" fill="white" fill-opacity="0.2"/>
<path d="M1190.89 334.069C1193 334.433 1195.11 333.463 1195.61 331.946C1196.12 330.429 1194.77 328.912 1192.66 328.548C1190.55 328.184 1188.44 329.155 1187.93 330.671C1187.51 332.188 1188.78 333.705 1190.89 334.069Z" fill="white" fill-opacity="0.2"/>
<path d="M710.409 308.831C712.518 309.195 714.628 308.224 715.134 306.707C715.641 305.19 714.29 303.674 712.181 303.31C710.071 302.945 707.962 303.916 707.455 305.433C707.033 306.95 708.299 308.467 710.409 308.831Z" fill="white" fill-opacity="0.2"/>
<path d="M71.4562 415.44C73.5658 415.804 75.6754 414.833 76.1817 413.316C76.688 411.799 75.3378 410.282 73.2283 409.918C71.1187 409.554 69.0091 410.525 68.5028 412.042C67.9965 413.559 69.3466 415.076 71.4562 415.44Z" fill="white" fill-opacity="0.2"/>
<path d="M899.683 617.434C901.792 617.798 903.902 616.827 904.408 615.31C904.914 613.794 903.564 612.277 901.455 611.913C899.345 611.549 897.236 612.519 896.729 614.036C896.307 615.553 897.573 617.07 899.683 617.434Z" fill="white" fill-opacity="0.2"/>
<path d="M288.485 566.405C290.594 566.77 292.704 565.799 293.21 564.282C293.716 562.765 292.366 561.248 290.257 560.884C288.147 560.52 286.037 561.491 285.531 563.008C285.025 564.524 286.375 566.041 288.485 566.405Z" fill="white" fill-opacity="0.2"/>
<path d="M580.373 536.372C582.483 536.736 584.593 535.765 585.099 534.248C585.605 532.731 584.255 531.214 582.145 530.85C580.036 530.486 577.926 531.457 577.42 532.974C576.914 534.491 578.264 536.008 580.373 536.372Z" fill="white" fill-opacity="0.2"/>
<path d="M498.767 544.379C500.877 544.743 502.987 543.772 503.493 542.255C503.999 540.738 502.649 539.221 500.54 538.857C498.43 538.493 496.32 539.464 495.814 540.981C495.308 542.498 496.658 544.014 498.767 544.379Z" fill="white" fill-opacity="0.2"/>
<path d="M435.062 365.501C437.172 365.865 439.282 364.895 439.788 363.378C440.294 361.861 438.944 360.344 436.834 359.98C434.725 359.616 432.615 360.587 432.109 362.103C431.603 363.62 432.953 365.137 435.062 365.501Z" fill="white" fill-opacity="0.2"/>
<path d="M704.587 693.398C706.697 693.762 708.807 692.791 709.313 691.274C709.819 689.758 708.469 688.241 706.359 687.877C704.25 687.513 702.14 688.483 701.634 690C701.128 691.517 702.478 693.034 704.587 693.398Z" fill="white" fill-opacity="0.2"/>
<path d="M614.806 675.319C616.915 675.683 619.025 674.712 619.531 673.195C620.038 671.678 618.687 670.161 616.578 669.797C614.468 669.433 612.359 670.404 611.852 671.921C611.43 673.438 612.696 674.955 614.806 675.319Z" fill="white" fill-opacity="0.2"/>
<path d="M776.825 517.437C778.934 517.801 781.044 516.831 781.55 515.314C782.056 513.797 780.706 512.28 778.597 511.916C776.487 511.552 774.377 512.522 773.871 514.039C773.449 515.556 774.715 517.073 776.825 517.437Z" fill="white" fill-opacity="0.2"/>
<path d="M441.806 671.499C443.916 671.863 446.025 670.892 446.531 669.375C447.038 667.858 445.688 666.341 443.578 665.977C441.468 665.613 439.359 666.584 438.853 668.101C438.431 669.618 439.696 671.135 441.806 671.499Z" fill="white" fill-opacity="0.2"/>
<path d="M702.141 533.944C704.251 534.309 706.36 533.338 706.867 531.821C707.373 530.304 706.023 528.787 703.913 528.423C701.804 528.059 699.694 529.03 699.188 530.547C698.766 532.063 700.032 533.58 702.141 533.944Z" fill="white" fill-opacity="0.2"/>
<path d="M216.345 634.06C218.455 634.424 220.565 633.453 221.071 631.936C221.577 630.419 220.227 628.902 218.117 628.538C216.008 628.174 213.898 629.145 213.392 630.662C212.886 632.179 214.236 633.696 216.345 634.06Z" fill="white" fill-opacity="0.2"/>
<path d="M1078.32 642.067C1080.43 642.431 1082.54 641.46 1083.05 639.943C1083.55 638.426 1082.2 636.909 1080.09 636.545C1077.98 636.181 1075.87 637.152 1075.37 638.669C1074.95 640.186 1076.21 641.703 1078.32 642.067Z" fill="white" fill-opacity="0.2"/>
<path d="M167.911 544.076C170.021 544.44 172.13 543.469 172.637 541.952C173.143 540.435 171.793 538.918 169.683 538.554C167.573 538.19 165.464 539.161 164.958 540.678C164.451 542.195 165.801 543.712 167.911 544.076Z" fill="white" fill-opacity="0.2"/>
<path d="M618.085 734.054C620.194 734.418 622.304 733.447 622.81 731.93C623.316 730.413 621.966 728.896 619.857 728.532C617.747 728.168 615.637 729.139 615.131 730.656C614.625 732.233 615.975 733.75 618.085 734.054Z" fill="white" fill-opacity="0.2"/>
<path d="M869.723 749.652C871.832 750.016 873.942 749.045 874.448 747.528C874.954 746.011 873.604 744.494 871.495 744.13C869.385 743.766 867.275 744.737 866.769 746.254C866.347 747.771 867.613 749.287 869.723 749.652Z" fill="white" fill-opacity="0.2"/>
<path d="M785.088 739.817C787.197 740.181 789.307 739.211 789.813 737.694C790.319 736.177 788.969 734.66 786.86 734.296C784.75 733.932 782.64 734.902 782.134 736.419C781.712 737.936 782.978 739.453 785.088 739.817Z" fill="white" fill-opacity="0.2"/>
<path d="M884.415 420.477C886.525 420.841 888.635 419.871 889.141 418.354C889.647 416.837 888.297 415.32 886.187 414.956C884.078 414.592 881.968 415.563 881.462 417.079C880.956 418.596 882.306 420.113 884.415 420.477Z" fill="white" fill-opacity="0.2"/>
<path d="M695.969 393.659C698.078 394.023 700.188 393.052 700.694 391.535C701.201 390.018 699.85 388.501 697.741 388.137C695.631 387.773 693.522 388.744 693.015 390.261C692.509 391.778 693.859 393.295 695.969 393.659Z" fill="white" fill-opacity="0.2"/>
<path d="M575.054 347.119C577.164 347.483 579.273 346.512 579.78 344.995C580.286 343.478 578.936 341.961 576.826 341.597C574.717 341.233 572.607 342.204 572.101 343.721C571.679 345.238 572.945 346.755 575.054 347.119Z" fill="white" fill-opacity="0.2"/>
<path d="M510.591 415.62C512.701 415.984 514.81 415.013 515.317 413.496C515.823 411.979 514.473 410.462 512.363 410.098C510.254 409.734 508.144 410.705 507.638 412.222C507.131 413.739 508.482 415.256 510.591 415.62Z" fill="white" fill-opacity="0.2"/>
<path d="M795.72 325.819C795.214 327.336 796.564 328.853 798.674 329.217C800.783 329.581 802.893 328.61 803.399 327.093C803.905 325.576 802.555 324.06 800.446 323.695C798.336 323.331 796.227 324.302 795.72 325.819Z" fill="white" fill-opacity="0.2"/>
<path d="M1204.13 459.492C1206.24 459.856 1208.35 458.885 1208.86 457.368C1209.37 455.851 1208.02 454.334 1205.91 453.97C1203.8 453.606 1201.69 454.577 1201.18 456.094C1200.76 457.611 1202.02 459.128 1204.13 459.492Z" fill="white" fill-opacity="0.2"/>
<path d="M930.829 307.069C932.938 307.433 935.048 306.462 935.554 304.945C936.061 303.429 934.71 301.912 932.601 301.548C930.491 301.183 928.381 302.154 927.875 303.671C927.369 305.188 928.719 306.705 930.829 307.069Z" fill="white" fill-opacity="0.2"/>
<path d="M995.288 359.92C997.398 360.284 999.507 359.314 1000.01 357.797C1000.52 356.28 999.17 354.763 997.06 354.399C994.95 354.035 992.841 355.006 992.335 356.523C991.828 358.1 993.178 359.617 995.288 359.92Z" fill="white" fill-opacity="0.2"/>
<path d="M1021.03 522.172C1023.14 522.536 1025.25 521.565 1025.75 520.048C1026.26 518.531 1024.91 517.014 1022.8 516.65C1020.69 516.286 1018.58 517.257 1018.08 518.774C1017.65 520.291 1018.92 521.808 1021.03 522.172Z" fill="white" fill-opacity="0.2"/>
<path d="M896.65 568.833C898.759 569.197 900.869 568.226 901.375 566.709C901.881 565.192 900.531 563.675 898.422 563.311C896.312 562.947 894.202 563.918 893.696 565.435C893.274 566.952 894.54 568.469 896.65 568.833Z" fill="white" fill-opacity="0.2"/>
<path d="M436.238 390.807C438.348 391.171 440.458 390.201 440.964 388.684C441.47 387.167 440.12 385.65 438.01 385.286C435.901 384.922 433.791 385.892 433.285 387.409C432.863 388.926 434.129 390.443 436.238 390.807Z" fill="white" fill-opacity="0.2"/>
<path d="M668.221 367.689C670.33 368.053 672.44 367.082 672.946 365.565C673.452 364.048 672.102 362.531 669.993 362.167C667.883 361.803 665.774 362.774 665.267 364.291C664.761 365.808 666.111 367.325 668.221 367.689Z" fill="white" fill-opacity="0.2"/>
<path d="M747.12 326.184C749.23 326.548 751.339 325.578 751.846 324.061C752.352 322.544 751.002 321.027 748.892 320.663C746.783 320.299 744.673 321.27 744.167 322.786C743.745 324.303 745.011 325.82 747.12 326.184Z" fill="white" fill-opacity="0.2"/>
<path d="M645.016 199.736C647.125 200.1 649.235 199.129 649.741 197.613C650.247 196.096 648.897 194.579 646.788 194.215C644.678 193.851 642.569 194.821 642.062 196.338C641.64 197.855 642.906 199.372 645.016 199.736Z" fill="white" fill-opacity="0.2"/>
<path d="M741.287 146.031C743.397 146.395 745.506 145.424 746.012 143.907C746.519 142.39 745.169 140.873 743.059 140.509C740.949 140.145 738.84 141.116 738.334 142.633C737.827 144.15 739.177 145.667 741.287 146.031Z" fill="white" fill-opacity="0.2"/>
<path d="M675.21 269.211C677.319 269.575 679.429 268.604 679.935 267.088C680.442 265.571 679.092 264.054 676.982 263.69C674.872 263.326 672.763 264.296 672.256 265.813C671.75 267.33 673.1 268.847 675.21 269.211Z" fill="white" fill-opacity="0.2"/>
<path d="M507.372 582.967C509.482 583.331 511.592 582.361 512.098 580.844C512.604 579.327 511.254 577.81 509.145 577.446C507.035 577.082 504.925 578.053 504.419 579.569C503.913 581.086 505.263 582.603 507.372 582.967Z" fill="white" fill-opacity="0.2"/>
<path d="M419.286 606.025C421.396 606.389 423.505 605.419 424.011 603.902C424.518 602.385 423.168 600.868 421.058 600.504C418.948 600.14 416.839 601.11 416.333 602.627C415.911 604.144 417.176 605.661 419.286 606.025Z" fill="white" fill-opacity="0.2"/>
<path d="M375.58 719.919C377.689 720.283 379.799 719.312 380.305 717.796C380.811 716.279 379.461 714.762 377.352 714.398C375.242 714.034 373.133 715.004 372.626 716.521C372.204 718.038 373.47 719.555 375.58 719.919Z" fill="white" fill-opacity="0.2"/>
<path d="M447.892 446.932C450.002 447.296 452.112 446.325 452.618 444.808C453.124 443.291 451.774 441.774 449.665 441.41C447.555 441.046 445.445 442.017 444.939 443.534C444.433 445.051 445.783 446.568 447.892 446.932Z" fill="white" fill-opacity="0.2"/>
<path d="M491.175 486.795C493.285 487.159 495.395 486.188 495.901 484.671C496.407 483.154 495.057 481.637 492.947 481.273C490.838 480.909 488.728 481.88 488.222 483.397C487.8 484.914 489.066 486.431 491.175 486.795Z" fill="white" fill-opacity="0.2"/>
<path d="M445.608 507.06C447.718 507.424 449.827 506.453 450.333 504.936C450.84 503.419 449.49 501.902 447.38 501.538C445.27 501.174 443.161 502.145 442.655 503.662C442.148 505.179 443.498 506.696 445.608 507.06Z" fill="white" fill-opacity="0.2"/>
<path d="M347.136 541.524C349.246 541.888 351.355 540.918 351.862 539.401C352.368 537.884 351.018 536.367 348.908 536.003C346.799 535.639 344.689 536.61 344.183 538.127C343.761 539.643 345.026 541.16 347.136 541.524Z" fill="white" fill-opacity="0.2"/>
<path d="M98.7147 133.111C100.824 133.475 102.934 132.504 103.44 130.987C103.946 129.47 102.596 127.953 100.487 127.589C98.3772 127.225 96.2676 128.196 95.7613 129.713C95.3393 131.23 96.6051 132.747 98.7147 133.111Z" fill="white" fill-opacity="0.2"/>
<path d="M161.497 246.7C163.607 247.064 165.716 246.093 166.222 244.576C166.729 243.059 165.379 241.542 163.269 241.178C161.159 240.814 159.05 241.785 158.543 243.302C158.122 244.819 159.387 246.336 161.497 246.7Z" fill="white" fill-opacity="0.2"/>
<path d="M1045.49 207.016C1047.6 207.38 1049.71 206.409 1050.22 204.892C1050.73 203.375 1049.38 201.858 1047.27 201.494C1045.16 201.13 1043.05 202.101 1042.54 203.618C1042.12 205.135 1043.38 206.651 1045.49 207.016Z" fill="white" fill-opacity="0.2"/>
<path d="M1380.66 256.525C1382.77 256.889 1384.88 255.918 1385.39 254.402C1385.89 252.885 1384.54 251.368 1382.43 251.004C1380.32 250.64 1378.21 251.61 1377.71 253.127C1377.29 254.644 1378.55 256.161 1380.66 256.525Z" fill="white" fill-opacity="0.2"/>
<path d="M1197.22 398.023C1197.89 397.659 1197.97 396.931 1197.47 396.445C1196.96 395.96 1195.95 395.899 1195.27 396.263C1194.6 396.627 1194.51 397.355 1195.02 397.841C1195.53 398.326 1196.54 398.387 1197.22 398.023Z" fill="white" fill-opacity="0.2"/>
<path d="M1148.78 466.646C1149.46 466.282 1149.54 465.554 1149.03 465.069C1148.53 464.583 1147.51 464.523 1146.84 464.887C1146.16 465.251 1146.08 465.979 1146.59 466.464C1147.18 466.889 1148.11 467.01 1148.78 466.646Z" fill="white" fill-opacity="0.2"/>
<path d="M1145.24 401.113C1145.91 400.749 1145.99 400.021 1145.49 399.536C1144.98 399.05 1143.97 398.99 1143.29 399.354C1142.62 399.718 1142.53 400.446 1143.04 400.931C1143.55 401.417 1144.56 401.477 1145.24 401.113Z" fill="white" fill-opacity="0.2"/>
<path d="M1170.2 483.636C1170.88 483.272 1170.96 482.544 1170.46 482.058C1169.95 481.573 1168.94 481.512 1168.26 481.876C1167.59 482.24 1167.5 482.968 1168.01 483.454C1168.6 483.939 1169.53 484.061 1170.2 483.636Z" fill="white" fill-opacity="0.2"/>
<path d="M1214.86 434C1215.53 433.636 1215.62 432.908 1215.11 432.422C1214.6 431.937 1213.59 431.876 1212.92 432.24C1212.24 432.604 1212.16 433.333 1212.66 433.818C1213.17 434.303 1214.18 434.364 1214.86 434Z" fill="white" fill-opacity="0.2"/>
<path d="M1399.82 463.733C1400.5 463.369 1400.58 462.64 1400.08 462.155C1399.57 461.669 1398.56 461.609 1397.88 461.973C1397.21 462.337 1397.12 463.065 1397.63 463.551C1398.14 464.036 1399.15 464.157 1399.82 463.733Z" fill="white" fill-opacity="0.2"/>
<path d="M1200.34 512.699C1201.01 512.335 1201.1 511.606 1200.59 511.121C1200.08 510.635 1199.07 510.575 1198.4 510.939C1197.72 511.303 1197.64 512.031 1198.14 512.517C1198.73 513.002 1199.66 513.123 1200.34 512.699Z" fill="white" fill-opacity="0.2"/>
<path d="M1125.74 585.756C1126.41 585.392 1126.5 584.664 1125.99 584.179C1125.48 583.693 1124.47 583.633 1123.8 583.997C1123.12 584.361 1123.04 585.089 1123.54 585.574C1124.13 586.06 1125.06 586.181 1125.74 585.756Z" fill="white" fill-opacity="0.2"/>
<path d="M1206.41 544.252C1207.09 543.888 1207.17 543.159 1206.66 542.674C1206.16 542.189 1205.15 542.128 1204.47 542.492C1203.79 542.856 1203.71 543.584 1204.22 544.07C1204.72 544.555 1205.74 544.616 1206.41 544.252Z" fill="white" fill-opacity="0.2"/>
<path d="M1250.62 532.966C1251.3 532.602 1251.38 531.874 1250.88 531.388C1250.37 530.903 1249.36 530.842 1248.68 531.206C1248.01 531.57 1247.92 532.298 1248.43 532.784C1248.94 533.269 1249.95 533.33 1250.62 532.966Z" fill="white" fill-opacity="0.2"/>
<path d="M1113.93 505.419C1114.61 505.055 1114.69 504.327 1114.18 503.841C1113.68 503.356 1112.66 503.295 1111.99 503.659C1111.31 504.023 1111.23 504.752 1111.74 505.237C1112.24 505.722 1113.26 505.783 1113.93 505.419Z" fill="white" fill-opacity="0.2"/>
<path d="M838.076 470.895C838.751 470.531 838.836 469.803 838.329 469.318C837.823 468.832 836.81 468.772 836.135 469.136C835.46 469.5 835.376 470.228 835.882 470.713C836.473 471.199 837.401 471.259 838.076 470.895Z" fill="white" fill-opacity="0.2"/>
<path d="M448.055 367.075C448.73 366.711 448.815 365.983 448.309 365.498C447.802 365.012 446.79 364.952 446.115 365.316C445.439 365.68 445.355 366.408 445.861 366.893C446.452 367.318 447.38 367.439 448.055 367.075Z" fill="white" fill-opacity="0.2"/>
<path d="M433.125 348.633C433.801 348.269 433.885 347.541 433.379 347.055C432.872 346.57 431.86 346.509 431.185 346.873C430.51 347.238 430.425 347.966 430.931 348.451C431.522 348.937 432.45 349.058 433.125 348.633Z" fill="white" fill-opacity="0.2"/>
<path d="M384.59 224.304C385.265 223.94 385.349 223.212 384.843 222.726C384.337 222.241 383.324 222.18 382.649 222.544C381.974 222.908 381.889 223.637 382.396 224.122C382.902 224.607 383.915 224.668 384.59 224.304Z" fill="white" fill-opacity="0.2"/>
<path d="M444.671 301.604C445.346 301.24 445.431 300.512 444.924 300.027C444.418 299.541 443.405 299.481 442.73 299.845C442.055 300.209 441.971 300.937 442.477 301.422C442.983 301.908 443.996 301.968 444.671 301.604Z" fill="white" fill-opacity="0.2"/>
<path d="M535.979 308.947C536.654 308.583 536.739 307.855 536.232 307.369C535.726 306.884 534.713 306.823 534.038 307.187C533.363 307.551 533.279 308.279 533.785 308.765C534.291 309.25 535.304 309.311 535.979 308.947Z" fill="white" fill-opacity="0.2"/>
<path d="M454.373 356.34C455.048 355.976 455.132 355.248 454.626 354.763C454.12 354.277 453.107 354.217 452.432 354.581C451.757 354.945 451.673 355.673 452.179 356.158C452.77 356.583 453.698 356.705 454.373 356.34Z" fill="white" fill-opacity="0.2"/>
<path d="M349.918 284.738C350.593 284.374 350.678 283.645 350.171 283.16C349.665 282.675 348.652 282.614 347.977 282.978C347.302 283.342 347.218 284.07 347.724 284.556C348.315 285.041 349.243 285.102 349.918 284.738Z" fill="white" fill-opacity="0.2"/>
<path d="M296.254 312.83C296.929 312.466 297.014 311.738 296.507 311.252C296.001 310.767 294.988 310.706 294.313 311.07C293.638 311.435 293.554 312.163 294.06 312.648C294.651 313.133 295.579 313.255 296.254 312.83Z" fill="white" fill-opacity="0.2"/>
<path d="M278.031 329.759C278.706 329.395 278.79 328.666 278.284 328.181C277.777 327.696 276.765 327.635 276.09 327.999C275.415 328.363 275.33 329.091 275.836 329.577C276.343 330.062 277.355 330.123 278.031 329.759Z" fill="white" fill-opacity="0.2"/>
<path d="M572.352 494.983C573.027 494.619 573.112 493.89 572.606 493.405C572.099 492.92 571.087 492.859 570.412 493.223C569.737 493.587 569.652 494.315 570.158 494.801C570.749 495.286 571.677 495.407 572.352 494.983Z" fill="white" fill-opacity="0.2"/>
<path d="M385.273 479.45C385.948 479.086 386.033 478.358 385.526 477.872C385.02 477.387 384.007 477.326 383.332 477.69C382.657 478.054 382.573 478.783 383.079 479.268C383.67 479.753 384.598 479.814 385.273 479.45Z" fill="white" fill-opacity="0.2"/>
<path d="M672.262 515.007C672.938 514.643 673.022 513.915 672.516 513.43C672.009 512.944 670.997 512.883 670.322 513.248C669.646 513.612 669.562 514.34 670.068 514.825C670.575 515.311 671.587 515.371 672.262 515.007Z" fill="white" fill-opacity="0.2"/>
<path d="M736.055 528.477C736.73 528.113 736.815 527.385 736.308 526.9C735.802 526.414 734.789 526.354 734.114 526.718C733.439 527.082 733.355 527.81 733.861 528.295C734.367 528.781 735.38 528.841 736.055 528.477Z" fill="white" fill-opacity="0.2"/>
<path d="M576.319 560.698C576.995 560.334 577.079 559.606 576.573 559.12C576.066 558.635 575.054 558.574 574.379 558.938C573.704 559.302 573.619 560.03 574.126 560.516C574.716 560.94 575.644 561.062 576.319 560.698Z" fill="white" fill-opacity="0.2"/>
<path d="M587.716 541.886C588.391 541.522 588.476 540.794 587.969 540.309C587.463 539.823 586.45 539.763 585.775 540.127C585.1 540.491 585.016 541.219 585.522 541.704C586.113 542.19 587.041 542.25 587.716 541.886Z" fill="white" fill-opacity="0.2"/>
<path d="M515.22 541.34C515.895 540.976 515.98 540.248 515.474 539.762C514.967 539.277 513.955 539.216 513.28 539.58C512.604 539.944 512.52 540.672 513.026 541.158C513.533 541.643 514.545 541.704 515.22 541.34Z" fill="white" fill-opacity="0.2"/>
<path d="M501.214 551.715C501.889 551.351 501.973 550.623 501.467 550.137C500.96 549.652 499.948 549.591 499.273 549.955C498.598 550.32 498.513 551.048 499.02 551.533C499.526 552.018 500.538 552.079 501.214 551.715Z" fill="white" fill-opacity="0.2"/>
<path d="M471.258 565.671C471.933 565.307 472.018 564.579 471.511 564.093C471.005 563.608 469.992 563.547 469.317 563.911C468.642 564.275 468.558 565.004 469.064 565.489C469.571 565.974 470.583 566.035 471.258 565.671Z" fill="white" fill-opacity="0.2"/>
<path d="M465.448 513.062C466.123 512.698 466.207 511.97 465.701 511.485C465.195 510.999 464.182 510.939 463.507 511.303C462.832 511.667 462.747 512.395 463.254 512.88C463.76 513.305 464.773 513.426 465.448 513.062Z" fill="white" fill-opacity="0.2"/>
<path d="M384.262 487.034C384.937 486.67 385.022 485.942 384.515 485.457C384.009 484.971 382.996 484.911 382.321 485.275C381.646 485.639 381.562 486.367 382.068 486.852C382.659 487.338 383.587 487.459 384.262 487.034Z" fill="white" fill-opacity="0.2"/>
<path d="M361.136 489.943C361.811 489.579 361.896 488.851 361.39 488.366C360.883 487.88 359.871 487.82 359.196 488.184C358.521 488.548 358.436 489.276 358.942 489.761C359.533 490.186 360.461 490.307 361.136 489.943Z" fill="white" fill-opacity="0.2"/>
<path d="M395.992 373.51C396.667 373.146 396.752 372.418 396.245 371.932C395.739 371.447 394.726 371.386 394.051 371.75C393.376 372.114 393.292 372.842 393.798 373.328C394.304 373.813 395.317 373.874 395.992 373.51Z" fill="white" fill-opacity="0.2"/>
<path d="M283.253 371.627C283.928 371.263 284.012 370.535 283.506 370.049C282.999 369.564 281.987 369.503 281.312 369.867C280.637 370.231 280.552 370.96 281.059 371.445C281.565 371.87 282.578 371.991 283.253 371.627Z" fill="white" fill-opacity="0.2"/>
<path d="M272.278 369.504C272.953 369.14 273.037 368.411 272.531 367.926C272.025 367.441 271.012 367.38 270.337 367.744C269.662 368.108 269.577 368.836 270.084 369.322C270.674 369.807 271.603 369.868 272.278 369.504Z" fill="white" fill-opacity="0.2"/>
<path d="M259.038 370.591C259.713 370.227 259.797 369.499 259.291 369.014C258.784 368.528 257.772 368.468 257.097 368.832C256.422 369.196 256.337 369.924 256.844 370.409C257.35 370.895 258.362 370.956 259.038 370.591Z" fill="white" fill-opacity="0.2"/>
<path d="M487.461 404.455C488.136 404.091 488.221 403.363 487.715 402.878C487.208 402.392 486.196 402.331 485.521 402.695C484.845 403.06 484.761 403.788 485.267 404.273C485.774 404.758 486.786 404.819 487.461 404.455Z" fill="white" fill-opacity="0.2"/>
<path d="M363.248 317.623C363.923 317.259 364.007 316.531 363.501 316.046C362.995 315.56 361.982 315.5 361.307 315.864C360.632 316.228 360.547 316.956 361.054 317.441C361.644 317.927 362.573 317.987 363.248 317.623Z" fill="white" fill-opacity="0.2"/>
<path d="M623.404 512.699C624.08 512.335 624.164 511.606 623.658 511.121C623.151 510.635 622.139 510.575 621.464 510.939C620.789 511.303 620.704 512.031 621.21 512.517C621.801 513.002 622.729 513.123 623.404 512.699Z" fill="white" fill-opacity="0.2"/>
<path d="M711.085 488.248C711.76 487.884 711.844 487.155 711.338 486.67C710.832 486.185 709.819 486.124 709.144 486.488C708.469 486.852 708.385 487.58 708.891 488.066C709.397 488.551 710.41 488.612 711.085 488.248Z" fill="white" fill-opacity="0.2"/>
<path d="M777.322 487.095C777.997 486.731 778.082 486.003 777.576 485.518C777.069 485.032 776.057 484.972 775.382 485.336C774.707 485.7 774.622 486.428 775.128 486.913C775.635 487.338 776.647 487.459 777.322 487.095Z" fill="white" fill-opacity="0.2"/>
<path d="M633.023 418.831C633.698 418.467 633.782 417.739 633.276 417.254C632.77 416.768 631.757 416.708 631.082 417.072C630.407 417.436 630.323 418.164 630.829 418.649C631.335 419.135 632.348 419.195 633.023 418.831Z" fill="white" fill-opacity="0.2"/>
<path d="M671.68 389.646C672.355 389.281 672.439 388.553 671.933 388.068C671.427 387.583 670.414 387.522 669.739 387.886C669.064 388.25 668.979 388.978 669.486 389.464C669.992 389.949 671.005 390.01 671.68 389.646Z" fill="white" fill-opacity="0.2"/>
<path d="M638.507 363.982C639.182 363.618 639.267 362.89 638.76 362.404C638.254 361.919 637.241 361.858 636.566 362.222C635.891 362.586 635.807 363.314 636.313 363.8C636.82 364.285 637.832 364.406 638.507 363.982Z" fill="white" fill-opacity="0.2"/>
<path d="M642.302 281.459C642.977 281.095 643.061 280.367 642.555 279.881C642.049 279.396 641.036 279.335 640.361 279.699C639.686 280.063 639.601 280.791 640.108 281.277C640.614 281.762 641.627 281.823 642.302 281.459Z" fill="white" fill-opacity="0.2"/>
<path d="M703.817 348.023C704.492 347.659 704.577 346.931 704.07 346.446C703.564 345.96 702.551 345.9 701.876 346.264C701.201 346.628 701.117 347.356 701.623 347.841C702.129 348.327 703.142 348.387 703.817 348.023Z" fill="white" fill-opacity="0.2"/>
<path d="M848.283 215.081C848.958 214.717 849.043 213.989 848.536 213.503C848.03 213.018 847.017 212.957 846.342 213.321C845.667 213.685 845.583 214.413 846.089 214.899C846.68 215.323 847.608 215.445 848.283 215.081Z" fill="white" fill-opacity="0.2"/>
<path d="M765.927 443.165C766.602 442.801 766.686 442.072 766.18 441.587C765.673 441.102 764.661 441.041 763.986 441.405C763.311 441.769 763.226 442.497 763.732 442.983C764.323 443.468 765.336 443.529 765.927 443.165Z" fill="white" fill-opacity="0.2"/>
<path d="M860.269 365.374C860.944 365.01 861.028 364.282 860.522 363.797C860.016 363.311 859.003 363.251 858.328 363.615C857.653 363.979 857.569 364.707 858.075 365.192C858.666 365.678 859.594 365.799 860.269 365.374Z" fill="white" fill-opacity="0.2"/>
<path d="M758.593 532.907C759.268 532.543 759.352 531.815 758.846 531.33C758.339 530.844 757.327 530.783 756.652 531.147C755.977 531.512 755.892 532.24 756.398 532.725C756.989 533.211 757.917 533.332 758.593 532.907Z" fill="white" fill-opacity="0.2"/>
<path d="M842.473 559.846C843.148 559.482 843.232 558.754 842.726 558.269C842.219 557.783 841.207 557.723 840.532 558.087C839.857 558.451 839.772 559.179 840.279 559.664C840.869 560.089 841.798 560.21 842.473 559.846Z" fill="white" fill-opacity="0.2"/>
<path d="M777.061 571.132C777.736 570.768 777.821 570.04 777.314 569.554C776.808 569.069 775.796 569.008 775.121 569.372C774.446 569.736 774.361 570.464 774.867 570.95C775.374 571.435 776.386 571.496 777.061 571.132Z" fill="white" fill-opacity="0.2"/>
<path d="M948.871 551.531C949.546 551.167 949.63 550.439 949.124 549.953C948.618 549.468 947.605 549.407 946.93 549.771C946.255 550.135 946.171 550.864 946.677 551.349C947.183 551.834 948.196 551.895 948.871 551.531Z" fill="white" fill-opacity="0.2"/>
<path d="M976.471 486.123C977.146 485.759 977.23 485.031 976.724 484.545C976.218 484.06 975.205 483.999 974.53 484.363C973.855 484.728 973.771 485.456 974.277 485.941C974.868 486.426 975.796 486.487 976.471 486.123Z" fill="white" fill-opacity="0.2"/>
<path d="M941.193 346.871C941.868 346.507 941.952 345.779 941.446 345.293C940.94 344.808 939.927 344.747 939.252 345.111C938.577 345.476 938.492 346.204 938.999 346.689C939.505 347.174 940.518 347.235 941.193 346.871Z" fill="white" fill-opacity="0.2"/>
<path d="M960.773 357.672C961.448 357.308 961.533 356.58 961.027 356.095C960.52 355.609 959.508 355.549 958.833 355.913C958.157 356.277 958.073 357.005 958.579 357.49C959.17 357.915 960.098 358.036 960.773 357.672Z" fill="white" fill-opacity="0.2"/>
<path d="M1123.2 435.883C1123.88 435.519 1123.96 434.791 1123.46 434.305C1122.95 433.82 1121.94 433.759 1121.26 434.123C1120.59 434.487 1120.5 435.215 1121.01 435.701C1121.6 436.186 1122.53 436.247 1123.2 435.883Z" fill="white" fill-opacity="0.2"/>
<path d="M1179.91 451.234C1180.58 450.87 1180.67 450.142 1180.16 449.656C1179.65 449.171 1178.64 449.11 1177.97 449.474C1177.29 449.838 1177.21 450.566 1177.71 451.052C1178.22 451.537 1179.23 451.598 1179.91 451.234Z" fill="white" fill-opacity="0.2"/>
<path d="M1173.83 402.388C1174.51 402.024 1174.59 401.296 1174.09 400.811C1173.58 400.325 1172.57 400.265 1171.89 400.629C1171.22 400.993 1171.13 401.721 1171.64 402.206C1172.15 402.692 1173.16 402.752 1173.83 402.388Z" fill="white" fill-opacity="0.2"/>
<path d="M1142.2 319.019C1142.87 318.655 1142.96 317.927 1142.45 317.442C1141.94 316.956 1140.93 316.896 1140.25 317.26C1139.58 317.624 1139.5 318.352 1140 318.837C1140.51 319.323 1141.52 319.444 1142.2 319.019Z" fill="white" fill-opacity="0.2"/>
<path d="M1143.37 475.079C1144.05 474.715 1144.13 473.987 1143.63 473.502C1143.12 473.016 1142.11 472.955 1141.43 473.319C1140.76 473.684 1140.67 474.412 1141.18 474.897C1141.69 475.383 1142.7 475.443 1143.37 475.079Z" fill="white" fill-opacity="0.2"/>
<path d="M1264.05 477.206C1264.72 476.842 1264.81 476.114 1264.3 475.628C1263.79 475.143 1262.78 475.082 1262.11 475.446C1261.43 475.81 1261.35 476.538 1261.85 477.024C1262.44 477.509 1263.37 477.57 1264.05 477.206Z" fill="white" fill-opacity="0.2"/>
<path d="M1161.44 536.605C1162.11 536.241 1162.2 535.513 1161.69 535.027C1161.18 534.542 1160.17 534.481 1159.5 534.845C1158.82 535.21 1158.74 535.938 1159.24 536.423C1159.75 536.909 1160.76 536.969 1161.44 536.605Z" fill="white" fill-opacity="0.2"/>
<path d="M1099.41 591.886C1100.09 591.522 1100.17 590.794 1099.66 590.308C1099.16 589.823 1098.15 589.762 1097.47 590.126C1096.8 590.49 1096.71 591.218 1097.22 591.704C1097.81 592.189 1098.74 592.25 1099.41 591.886Z" fill="white" fill-opacity="0.2"/>
<path d="M1049.13 616.823C1049.8 616.458 1049.89 615.73 1049.38 615.245C1048.87 614.76 1047.86 614.699 1047.19 615.063C1046.51 615.427 1046.43 616.155 1046.93 616.64C1047.52 617.126 1048.45 617.247 1049.13 616.823Z" fill="white" fill-opacity="0.2"/>
<path d="M1437.11 384.795C1437.79 384.431 1437.87 383.703 1437.37 383.218C1436.86 382.732 1435.85 382.672 1435.17 383.036C1434.5 383.4 1434.41 384.128 1434.92 384.613C1435.43 385.099 1436.44 385.159 1437.11 384.795Z" fill="white" fill-opacity="0.2"/>
<path d="M1165.73 379.817C1166.41 379.453 1166.49 378.725 1165.99 378.239C1165.48 377.754 1164.47 377.693 1163.79 378.057C1163.12 378.421 1163.03 379.149 1163.54 379.635C1164.13 380.06 1165.06 380.181 1165.73 379.817Z" fill="white" fill-opacity="0.2"/>
<path d="M1171.38 321.504C1172.06 321.14 1172.14 320.412 1171.64 319.927C1171.13 319.441 1170.12 319.381 1169.44 319.745C1168.77 320.109 1168.68 320.837 1169.19 321.322C1169.7 321.808 1170.71 321.868 1171.38 321.504Z" fill="white" fill-opacity="0.2"/>
<path d="M1241.18 434.488C1241.86 434.124 1241.94 433.396 1241.44 432.91C1240.93 432.425 1239.92 432.364 1239.24 432.728C1238.57 433.092 1238.48 433.821 1238.99 434.306C1239.58 434.792 1240.51 434.852 1241.18 434.488Z" fill="white" fill-opacity="0.2"/>
<path d="M1232.15 442.741C1232.82 442.377 1232.91 441.649 1232.4 441.163C1231.9 440.678 1230.88 440.617 1230.21 440.981C1229.53 441.345 1229.45 442.074 1229.95 442.559C1230.46 443.044 1231.47 443.166 1232.15 442.741Z" fill="white" fill-opacity="0.2"/>
<path d="M899.925 453.722C900.6 453.358 900.684 452.63 900.178 452.144C899.672 451.659 898.659 451.598 897.984 451.962C897.309 452.326 897.224 453.055 897.731 453.54C898.321 454.025 899.25 454.147 899.925 453.722Z" fill="white" fill-opacity="0.2"/>
<path d="M863.897 552.018C864.572 551.654 864.657 550.926 864.151 550.44C863.644 549.955 862.632 549.894 861.957 550.258C861.282 550.622 861.197 551.35 861.703 551.836C862.294 552.321 863.222 552.382 863.897 552.018Z" fill="white" fill-opacity="0.2"/>
<path d="M787.531 522.348C788.206 521.984 788.29 521.256 787.784 520.77C787.278 520.285 786.265 520.224 785.59 520.588C784.915 520.952 784.83 521.68 785.337 522.166C785.843 522.59 786.856 522.712 787.531 522.348Z" fill="white" fill-opacity="0.2"/>
<path d="M597.501 501.897C598.176 501.533 598.26 500.805 597.754 500.32C597.248 499.834 596.235 499.774 595.56 500.138C594.885 500.502 594.8 501.23 595.307 501.715C595.897 502.14 596.91 502.261 597.501 501.897Z" fill="white" fill-opacity="0.2"/>
<path d="M802.05 258.342C802.725 257.978 802.809 257.25 802.303 256.764C801.796 256.279 800.784 256.218 800.109 256.582C799.434 256.946 799.349 257.674 799.856 258.16C800.362 258.645 801.374 258.767 802.05 258.342Z" fill="white" fill-opacity="0.2"/>
<path d="M717.24 225.396C717.915 225.032 718 224.304 717.494 223.819C716.987 223.333 715.975 223.272 715.3 223.637C714.625 224.001 714.54 224.729 715.046 225.214C715.637 225.639 716.565 225.76 717.24 225.396Z" fill="white" fill-opacity="0.2"/>
<path d="M708.295 135.351C708.97 134.987 709.055 134.259 708.548 133.773C708.042 133.288 707.03 133.227 706.355 133.591C705.679 133.955 705.595 134.684 706.101 135.169C706.608 135.654 707.62 135.715 708.295 135.351Z" fill="white" fill-opacity="0.2"/>
<path d="M647.198 161.623C647.873 161.259 647.957 160.531 647.451 160.045C646.944 159.56 645.932 159.499 645.257 159.863C644.582 160.227 644.497 160.955 645.003 161.441C645.594 161.926 646.522 161.987 647.198 161.623Z" fill="white" fill-opacity="0.2"/>
<path d="M610.58 143.664C611.255 143.3 611.339 142.572 610.833 142.086C610.327 141.601 609.314 141.54 608.639 141.904C607.964 142.268 607.88 142.997 608.386 143.482C608.892 143.967 609.905 144.028 610.58 143.664Z" fill="white" fill-opacity="0.2"/>
<path d="M868.031 524.533C868.707 524.169 868.791 523.441 868.285 522.956C867.778 522.47 866.766 522.41 866.091 522.774C865.416 523.138 865.331 523.866 865.837 524.351C866.428 524.837 867.356 524.897 868.031 524.533Z" fill="white" fill-opacity="0.2"/>
<path d="M842.894 690.422C843.569 690.058 843.653 689.329 843.147 688.844C842.641 688.358 841.628 688.298 840.953 688.662C840.278 689.026 840.194 689.754 840.7 690.24C841.291 690.664 842.219 690.786 842.894 690.422Z" fill="white" fill-opacity="0.2"/>
<path d="M741.884 730.957C742.559 730.593 742.643 729.865 742.137 729.379C741.63 728.894 740.618 728.833 739.943 729.197C739.268 729.561 739.183 730.29 739.69 730.775C740.196 731.26 741.208 731.321 741.884 730.957Z" fill="white" fill-opacity="0.2"/>
<path d="M746.863 739.149C747.538 738.785 747.622 738.057 747.116 737.571C746.61 737.086 745.597 737.025 744.922 737.389C744.247 737.754 744.162 738.482 744.669 738.967C745.175 739.453 746.188 739.574 746.863 739.149Z" fill="white" fill-opacity="0.2"/>
<path d="M909.722 746.428C910.397 746.064 910.481 745.335 909.975 744.85C909.469 744.365 908.456 744.304 907.781 744.668C907.106 745.032 907.021 745.76 907.528 746.246C908.034 746.731 909.047 746.792 909.722 746.428Z" fill="white" fill-opacity="0.2"/>
<path d="M898.831 731.136C899.506 730.772 899.59 730.044 899.084 729.558C898.577 729.073 897.565 729.012 896.89 729.376C896.215 729.74 896.13 730.468 896.637 730.954C897.143 731.439 898.155 731.5 898.831 731.136Z" fill="white" fill-opacity="0.2"/>
<path d="M812.929 773.734C813.604 773.37 813.688 772.642 813.182 772.156C812.675 771.671 811.663 771.61 810.988 771.974C810.313 772.338 810.228 773.066 810.735 773.552C811.325 774.037 812.254 774.098 812.929 773.734Z" fill="white" fill-opacity="0.2"/>
<path d="M808.372 781.5C809.047 781.136 809.131 780.408 808.625 779.922C808.119 779.437 807.106 779.376 806.431 779.74C805.756 780.104 805.672 780.832 806.178 781.318C806.684 781.803 807.697 781.864 808.372 781.5Z" fill="white" fill-opacity="0.2"/>
<path d="M800.776 764.448C801.451 764.084 801.535 763.356 801.029 762.871C800.523 762.385 799.51 762.325 798.835 762.689C798.16 763.053 798.076 763.781 798.582 764.266C799.173 764.752 800.101 764.812 800.776 764.448Z" fill="white" fill-opacity="0.2"/>
<path d="M485.944 501.354C486.619 500.99 486.704 500.262 486.197 499.776C485.691 499.291 484.678 499.23 484.003 499.594C483.328 499.958 483.244 500.687 483.75 501.172C484.341 501.657 485.269 501.718 485.944 501.354Z" fill="white" fill-opacity="0.2"/>
<path d="M488.895 534.421C489.57 534.057 489.654 533.328 489.148 532.843C488.642 532.358 487.629 532.297 486.954 532.661C486.279 533.025 486.195 533.753 486.701 534.239C487.207 534.724 488.22 534.785 488.895 534.421Z" fill="white" fill-opacity="0.2"/>
<path d="M523.322 601.594C523.997 601.23 524.082 600.502 523.575 600.016C523.069 599.531 522.056 599.47 521.381 599.834C520.706 600.198 520.622 600.926 521.128 601.412C521.635 601.836 522.647 601.958 523.322 601.594Z" fill="white" fill-opacity="0.2"/>
<path d="M560.2 529.383C560.875 529.019 560.96 528.291 560.453 527.806C559.947 527.32 558.934 527.26 558.259 527.624C557.584 527.988 557.5 528.716 558.006 529.201C558.512 529.687 559.525 529.747 560.2 529.383Z" fill="white" fill-opacity="0.2"/>
<path d="M527.373 500.505C528.048 500.141 528.132 499.412 527.626 498.927C527.12 498.442 526.107 498.381 525.432 498.745C524.757 499.109 524.672 499.837 525.179 500.323C525.769 500.808 526.698 500.929 527.373 500.505Z" fill="white" fill-opacity="0.2"/>
<path d="M285.019 382.364C285.694 382 285.778 381.272 285.272 380.786C284.766 380.301 283.753 380.24 283.078 380.604C282.403 380.968 282.319 381.696 282.825 382.182C283.416 382.607 284.344 382.728 285.019 382.364Z" fill="white" fill-opacity="0.2"/>
<path d="M341.555 392.742C342.23 392.378 342.314 391.649 341.808 391.164C341.302 390.679 340.289 390.618 339.614 390.982C338.939 391.346 338.855 392.074 339.361 392.56C339.867 393.045 340.88 393.106 341.555 392.742Z" fill="white" fill-opacity="0.2"/>
<path d="M606.697 396.927C607.372 396.563 607.456 395.835 606.95 395.35C606.444 394.864 605.431 394.804 604.756 395.168C604.081 395.532 603.996 396.26 604.503 396.745C605.093 397.17 606.022 397.292 606.697 396.927Z" fill="white" fill-opacity="0.2"/>
<path d="M778.418 352.696C779.093 352.332 779.177 351.604 778.671 351.118C778.164 350.633 777.152 350.572 776.477 350.936C775.802 351.3 775.717 352.028 776.223 352.514C776.814 352.999 777.742 353.12 778.418 352.696Z" fill="white" fill-opacity="0.2"/>
<path d="M697.826 369.021C698.501 368.657 698.586 367.929 698.079 367.444C697.573 366.958 696.56 366.897 695.885 367.262C695.21 367.626 695.126 368.354 695.632 368.839C696.223 369.325 697.151 369.385 697.826 369.021Z" fill="white" fill-opacity="0.2"/>
<path d="M869.304 259.617C869.979 259.253 870.063 258.525 869.557 258.039C869.051 257.554 868.038 257.493 867.363 257.857C866.688 258.222 866.604 258.95 867.11 259.435C867.701 259.92 868.629 259.981 869.304 259.617Z" fill="white" fill-opacity="0.2"/>
<path d="M598.25 529.145C598.925 528.781 599.009 528.053 598.503 527.567C597.997 527.082 596.984 527.021 596.309 527.385C595.634 527.749 595.55 528.477 596.056 528.963C596.647 529.448 597.575 529.509 598.25 529.145Z" fill="white" fill-opacity="0.2"/>
<path d="M765.254 375.025C765.929 374.661 766.014 373.933 765.507 373.448C765.001 372.962 763.988 372.902 763.313 373.266C762.638 373.63 762.554 374.358 763.06 374.843C763.566 375.329 764.579 375.45 765.254 375.025Z" fill="white" fill-opacity="0.2"/>
<path d="M350.245 449.597C350.92 449.233 351.004 448.505 350.498 448.019C349.992 447.534 348.979 447.473 348.304 447.837C347.629 448.201 347.545 448.929 348.051 449.415C348.557 449.9 349.57 449.961 350.245 449.597Z" fill="white" fill-opacity="0.2"/>
<path d="M412.534 371.566C413.209 371.202 413.294 370.474 412.788 369.988C412.281 369.503 411.269 369.442 410.594 369.806C409.918 370.17 409.834 370.899 410.34 371.384C410.931 371.809 411.859 371.93 412.534 371.566Z" fill="white" fill-opacity="0.2"/>
<path d="M407.471 379.153C408.146 378.789 408.231 378.061 407.724 377.575C407.218 377.09 406.206 377.029 405.531 377.393C404.855 377.757 404.771 378.485 405.277 378.971C405.784 379.456 406.796 379.577 407.471 379.153Z" fill="white" fill-opacity="0.2"/>
<path d="M1286.59 273.634C1287.26 273.27 1287.35 272.541 1286.84 272.056C1286.33 271.571 1285.32 271.51 1284.64 271.874C1283.97 272.238 1283.89 272.966 1284.39 273.452C1284.9 273.937 1285.91 274.058 1286.59 273.634Z" fill="white" fill-opacity="0.2"/>
<path d="M558.6 353.422C559.275 353.058 559.359 352.33 558.853 351.845C558.347 351.359 557.334 351.299 556.659 351.663C555.984 352.027 555.9 352.755 556.406 353.24C556.996 353.726 557.925 353.847 558.6 353.422Z" fill="white" fill-opacity="0.2"/>
<path d="M595.555 287.405C596.23 287.041 596.315 286.312 595.809 285.827C595.302 285.342 594.29 285.281 593.615 285.645C592.939 286.009 592.855 286.737 593.361 287.223C593.868 287.708 594.88 287.829 595.555 287.405Z" fill="white" fill-opacity="0.2"/>
<path d="M737.233 274.483C737.908 274.119 737.993 273.391 737.486 272.905C736.98 272.42 735.967 272.359 735.292 272.723C734.617 273.087 734.533 273.816 735.039 274.301C735.63 274.786 736.558 274.908 737.233 274.483Z" fill="white" fill-opacity="0.2"/>
<path d="M659.61 438.188C660.285 437.824 660.37 437.096 659.863 436.611C659.357 436.125 658.344 436.065 657.669 436.429C656.994 436.793 656.91 437.521 657.416 438.006C658.007 438.492 658.935 438.552 659.61 438.188Z" fill="white" fill-opacity="0.2"/>
<path d="M557.928 429.816C558.603 429.452 558.688 428.724 558.181 428.239C557.675 427.753 556.662 427.693 555.987 428.057C555.312 428.421 555.228 429.149 555.734 429.634C556.24 430.12 557.253 430.241 557.928 429.816Z" fill="white" fill-opacity="0.2"/>
<path d="M969.463 647.585C970.138 647.221 970.222 646.493 969.716 646.007C969.21 645.522 968.197 645.461 967.522 645.825C966.847 646.189 966.763 646.917 967.269 647.403C967.86 647.888 968.788 648.01 969.463 647.585Z" fill="white" fill-opacity="0.2"/>
<path d="M897.474 703.71C898.149 703.346 898.234 702.617 897.727 702.132C897.221 701.647 896.208 701.586 895.533 701.95C894.858 702.314 894.774 703.042 895.28 703.528C895.871 704.013 896.799 704.074 897.474 703.71Z" fill="white" fill-opacity="0.2"/>
<path d="M986.333 698.616C987.008 698.252 987.092 697.523 986.586 697.038C986.079 696.553 985.067 696.492 984.392 696.856C983.717 697.22 983.632 697.948 984.138 698.434C984.645 698.919 985.657 699.04 986.333 698.616Z" fill="white" fill-opacity="0.2"/>
<path d="M816.896 658.932C817.571 658.568 817.655 657.839 817.149 657.354C816.643 656.869 815.63 656.808 814.955 657.172C814.28 657.536 814.195 658.264 814.702 658.75C815.292 659.235 816.221 659.296 816.896 658.932Z" fill="white" fill-opacity="0.2"/>
<path d="M737.572 577.017C738.247 576.653 738.332 575.925 737.825 575.44C737.319 574.954 736.306 574.894 735.631 575.258C734.956 575.622 734.872 576.35 735.378 576.835C735.969 577.321 736.897 577.382 737.572 577.017Z" fill="white" fill-opacity="0.2"/>
<path d="M680.363 573.197C681.038 572.832 681.123 572.104 680.617 571.619C680.11 571.133 679.098 571.073 678.422 571.437C677.747 571.801 677.663 572.529 678.169 573.014C678.676 573.439 679.688 573.561 680.363 573.197Z" fill="white" fill-opacity="0.2"/>
<path d="M784.068 412.889C784.743 412.525 784.828 411.797 784.321 411.311C783.815 410.826 782.802 410.765 782.127 411.129C781.452 411.493 781.368 412.221 781.874 412.707C782.38 413.132 783.393 413.253 784.068 412.889Z" fill="white" fill-opacity="0.2"/>
<path d="M650.236 439.704C650.911 439.34 650.996 438.612 650.489 438.126C649.983 437.641 648.971 437.58 648.295 437.944C647.62 438.308 647.536 439.037 648.042 439.522C648.549 440.007 649.561 440.129 650.236 439.704Z" fill="white" fill-opacity="0.2"/>
<path d="M713.191 327.938C713.866 327.574 713.95 326.846 713.444 326.36C712.938 325.875 711.925 325.814 711.25 326.178C710.575 326.542 710.491 327.27 710.997 327.756C711.588 328.241 712.516 328.363 713.191 327.938Z" fill="white" fill-opacity="0.2"/>
<path d="M518.933 403.178C519.608 402.814 519.692 402.086 519.186 401.6C518.68 401.115 517.667 401.054 516.992 401.418C516.317 401.782 516.233 402.51 516.739 402.996C517.329 403.481 518.258 403.603 518.933 403.178Z" fill="white" fill-opacity="0.2"/>
<path d="M510.831 402.388C511.506 402.024 511.591 401.296 511.085 400.811C510.578 400.325 509.566 400.265 508.891 400.629C508.216 400.993 508.131 401.721 508.637 402.206C509.228 402.692 510.156 402.752 510.831 402.388Z" fill="white" fill-opacity="0.2"/>
<path d="M464.924 391.103C465.599 390.739 465.684 390.011 465.177 389.525C464.671 389.04 463.658 388.979 462.983 389.343C462.308 389.707 462.224 390.435 462.73 390.921C463.321 391.406 464.249 391.527 464.924 391.103Z" fill="white" fill-opacity="0.2"/>
<path d="M503.741 345.961C504.416 345.597 504.501 344.869 503.994 344.383C503.488 343.898 502.475 343.837 501.8 344.201C501.125 344.565 501.041 345.293 501.547 345.779C502.138 346.264 503.066 346.325 503.741 345.961Z" fill="white" fill-opacity="0.2"/>
<path d="M486.022 422.777C486.697 422.413 486.781 421.684 486.275 421.199C485.769 420.713 484.756 420.653 484.081 421.017C483.406 421.381 483.322 422.109 483.828 422.595C484.334 423.08 485.347 423.201 486.022 422.777Z" fill="white" fill-opacity="0.2"/>
<path d="M437.747 342.439C438.422 342.075 438.507 341.347 438 340.862C437.494 340.376 436.482 340.316 435.806 340.68C435.131 341.044 435.047 341.772 435.553 342.257C436.144 342.743 437.072 342.864 437.747 342.439Z" fill="white" fill-opacity="0.2"/>
<path d="M405.693 819.848C406.368 819.484 406.452 818.756 405.946 818.27C405.44 817.785 404.427 817.724 403.752 818.088C403.077 818.452 402.993 819.181 403.499 819.666C404.005 820.152 405.018 820.212 405.693 819.848Z" fill="white" fill-opacity="0.2"/>
<path d="M346.962 335.402C347.637 335.037 347.722 334.309 347.216 333.824C346.709 333.338 345.697 333.278 345.022 333.642C344.346 334.006 344.262 334.734 344.768 335.22C345.275 335.705 346.287 335.826 346.962 335.402Z" fill="white" fill-opacity="0.2"/>
<path d="M264.688 338.072C265.363 337.707 265.448 336.979 264.942 336.494C264.435 336.009 263.423 335.948 262.748 336.312C262.073 336.676 261.988 337.404 262.494 337.889C263.085 338.314 264.013 338.436 264.688 338.072Z" fill="white" fill-opacity="0.2"/>
<path d="M251.359 335.04C252.034 334.676 252.118 333.948 251.612 333.462C251.106 332.977 250.093 332.916 249.418 333.28C248.743 333.644 248.659 334.372 249.165 334.858C249.671 335.343 250.684 335.404 251.359 335.04Z" fill="white" fill-opacity="0.2"/>
<path d="M361.975 371.689C362.65 371.325 362.735 370.597 362.228 370.112C361.722 369.626 360.71 369.565 360.034 369.929C359.359 370.294 359.275 371.022 359.781 371.507C360.288 371.992 361.3 372.114 361.975 371.689Z" fill="white" fill-opacity="0.2"/>
<path d="M673.868 360.282C674.543 359.918 674.627 359.19 674.121 358.705C673.615 358.219 672.602 358.159 671.927 358.523C671.252 358.887 671.168 359.615 671.674 360.1C672.265 360.586 673.193 360.646 673.868 360.282Z" fill="white" fill-opacity="0.2"/>
<path d="M836.476 329.82C837.151 329.456 837.236 328.727 836.729 328.242C836.223 327.757 835.211 327.696 834.535 328.06C833.86 328.424 833.776 329.152 834.282 329.638C834.873 330.123 835.801 330.184 836.476 329.82Z" fill="white" fill-opacity="0.2"/>
<path d="M921.528 356.459C922.203 356.095 922.287 355.367 921.781 354.882C921.275 354.396 920.262 354.336 919.587 354.7C918.912 355.064 918.828 355.792 919.334 356.277C919.924 356.702 920.853 356.823 921.528 356.459Z" fill="white" fill-opacity="0.2"/>
<path d="M997.557 341.898C998.232 341.534 998.317 340.806 997.81 340.32C997.304 339.835 996.291 339.774 995.616 340.138C994.941 340.502 994.857 341.231 995.363 341.716C995.954 342.201 996.882 342.262 997.557 341.898Z" fill="white" fill-opacity="0.2"/>
<path d="M981.27 499.413C981.945 499.048 982.03 498.32 981.524 497.835C981.017 497.349 980.005 497.289 979.33 497.653C978.655 498.017 978.57 498.745 979.076 499.231C979.583 499.655 980.595 499.777 981.27 499.413Z" fill="white" fill-opacity="0.2"/>
<path d="M975.358 430.971C976.033 430.607 976.118 429.878 975.611 429.393C975.105 428.908 974.092 428.847 973.417 429.211C972.742 429.575 972.658 430.303 973.164 430.789C973.67 431.274 974.683 431.335 975.358 430.971Z" fill="white" fill-opacity="0.2"/>
<path d="M958.752 264.774C959.427 264.41 959.511 263.682 959.005 263.197C958.499 262.711 957.486 262.65 956.811 263.015C956.136 263.379 956.052 264.107 956.558 264.592C957.064 265.078 958.077 265.138 958.752 264.774Z" fill="white" fill-opacity="0.2"/>
<path d="M942.793 191.658C943.468 191.294 943.552 190.566 943.046 190.08C942.54 189.595 941.527 189.534 940.852 189.898C940.177 190.262 940.093 190.99 940.599 191.476C941.19 191.961 942.118 192.022 942.793 191.658Z" fill="white" fill-opacity="0.2"/>
<path d="M821.874 249.36C822.549 248.996 822.634 248.268 822.127 247.783C821.621 247.297 820.608 247.237 819.933 247.601C819.258 247.965 819.174 248.693 819.68 249.178C820.187 249.664 821.199 249.785 821.874 249.36Z" fill="white" fill-opacity="0.2"/>
<path d="M844.738 222.97C845.414 222.606 845.498 221.878 844.992 221.392C844.485 220.907 843.473 220.846 842.798 221.21C842.123 221.574 842.038 222.302 842.544 222.788C843.051 223.273 844.063 223.334 844.738 222.97Z" fill="white" fill-opacity="0.2"/>
<path d="M953.588 311.556C954.263 311.192 954.347 310.464 953.841 309.978C953.335 309.493 952.322 309.432 951.647 309.796C950.972 310.16 950.888 310.888 951.394 311.374C951.985 311.859 952.913 311.92 953.588 311.556Z" fill="white" fill-opacity="0.2"/>
<path d="M1172.57 539.273C1173.25 538.909 1173.33 538.181 1172.83 537.695C1172.32 537.21 1171.31 537.149 1170.63 537.513C1169.96 537.877 1169.87 538.605 1170.38 539.091C1170.88 539.576 1171.9 539.698 1172.57 539.273Z" fill="white" fill-opacity="0.2"/>
<path d="M1125.9 605.113C1126.58 604.749 1126.66 604.021 1126.16 603.535C1125.65 603.05 1124.64 602.989 1123.96 603.353C1123.29 603.718 1123.2 604.446 1123.71 604.931C1124.22 605.416 1125.23 605.477 1125.9 605.113Z" fill="white" fill-opacity="0.2"/>
<path d="M1229.2 596.736C1229.87 596.372 1229.96 595.644 1229.45 595.158C1228.94 594.673 1227.93 594.612 1227.26 594.976C1226.58 595.34 1226.5 596.069 1227 596.554C1227.51 596.979 1228.52 597.1 1229.2 596.736Z" fill="white" fill-opacity="0.2"/>
<path d="M1124.3 639.754C1124.97 639.39 1125.06 638.662 1124.55 638.177C1124.04 637.691 1123.03 637.631 1122.36 637.995C1121.68 638.359 1121.6 639.087 1122.1 639.572C1122.61 640.058 1123.62 640.119 1124.3 639.754Z" fill="white" fill-opacity="0.2"/>
<path d="M1175.53 370.232C1176.2 369.868 1176.29 369.14 1175.78 368.655C1175.28 368.169 1174.26 368.109 1173.59 368.473C1172.91 368.837 1172.83 369.565 1173.33 370.05C1173.84 370.536 1174.85 370.596 1175.53 370.232Z" fill="white" fill-opacity="0.2"/>
<path d="M1087.26 294.02C1087.93 293.656 1088.02 292.927 1087.51 292.442C1087.01 291.957 1085.99 291.896 1085.32 292.26C1084.64 292.624 1084.56 293.352 1085.06 293.838C1085.66 294.323 1086.58 294.384 1087.26 294.02Z" fill="white" fill-opacity="0.2"/>
<g style="mix-blend-mode:exclusion">
<path d="M686.387 827.533C610.104 827.533 536.184 816.794 466.568 795.617C433.067 785.424 400.833 772.863 370.623 758.18C340.751 743.678 312.567 726.992 286.999 708.607C261.431 690.222 238.225 670.016 218.058 648.476C197.637 626.753 180.169 603.575 165.993 579.486C136.543 529.428 121.607 476.214 121.607 421.423C121.607 366.632 136.543 313.418 165.993 263.36C180.169 239.271 197.637 216.092 218.058 194.37C238.225 172.89 261.431 152.624 286.999 134.239C312.567 115.854 340.667 99.168 370.623 84.6662C400.833 69.9824 433.067 57.4223 466.568 47.2285C536.184 26.0523 610.189 15.3125 686.387 15.3125C762.585 15.3125 836.59 26.0523 906.206 47.2285C939.707 57.4223 971.941 69.9824 1002.15 84.6662C1032.02 99.168 1060.21 115.854 1085.77 134.239C1111.34 152.624 1134.55 172.83 1154.72 194.37C1175.14 216.092 1192.6 239.271 1206.78 263.36C1236.23 313.418 1251.17 366.632 1251.17 421.423C1251.17 476.214 1236.23 529.428 1206.78 579.486C1192.6 603.575 1175.14 626.753 1154.72 648.476C1134.55 669.955 1111.34 690.222 1085.77 708.607C1060.21 726.992 1032.11 743.678 1002.15 758.18C971.941 772.863 939.707 785.424 906.206 795.617C836.59 816.794 762.585 827.533 686.387 827.533ZM686.387 16.2833C375.686 16.2833 122.957 198.011 122.957 421.423C122.957 644.835 375.686 826.562 686.387 826.562C997.088 826.562 1249.82 644.835 1249.82 421.423C1249.82 198.011 997.088 16.2833 686.387 16.2833Z" fill="white" fill-opacity="0.2"/>
<path d="M34.3731 421.578H33.0229C33.0229 418.362 33.1073 415.146 33.1917 411.93H34.5419C34.4575 415.146 34.3731 418.362 34.3731 421.578ZM34.8794 402.343L33.5293 402.283C33.698 399.067 33.9512 395.851 34.2043 392.635L35.5545 392.696C35.3013 395.912 35.0482 399.128 34.8794 402.343ZM36.5671 383.109L35.2169 383.048C35.5545 379.832 35.9764 376.617 36.3983 373.461L37.7484 373.583C37.3265 376.738 36.9046 379.954 36.5671 383.109ZM39.2673 363.996L37.9172 363.874C38.4235 360.719 39.0142 357.503 39.6893 354.348L41.0394 354.469C40.3643 357.625 39.7736 360.84 39.2673 363.996ZM43.0646 344.943L41.7145 344.761C42.4739 341.606 43.2334 338.39 43.9928 335.235L45.343 335.417C44.4991 338.633 43.7397 341.788 43.0646 344.943ZM47.8745 326.012L46.5243 325.83C47.4526 322.675 48.3808 319.52 49.3934 316.425L50.6591 316.668C49.7309 319.702 48.8027 322.917 47.8745 326.012ZM53.8657 307.263L52.6 307.02C53.697 303.926 54.7939 300.77 55.9753 297.676L57.2411 297.919C56.0597 301.013 54.9627 304.168 53.8657 307.263ZM60.9539 288.696L59.6882 288.453C60.9539 285.358 62.3041 282.264 63.6542 279.23L64.92 279.533C63.4855 282.567 62.1353 285.662 60.9539 288.696ZM69.0548 270.311L67.789 270.007C69.2235 266.973 70.7424 263.879 72.2614 260.906L73.5271 261.209C71.9238 264.243 70.4893 267.277 69.0548 270.311ZM78.1682 252.168L76.9025 251.804C78.5057 248.831 80.1934 245.797 81.8811 242.824L83.1468 243.188C81.4592 246.161 79.7715 249.195 78.1682 252.168ZM88.3786 234.329L87.1129 233.965C88.8849 231.053 90.7414 228.079 92.5978 225.167L93.7792 225.592C92.0071 228.444 90.1507 231.417 88.3786 234.329ZM99.6017 216.794L98.4203 216.369C100.361 213.456 102.386 210.605 104.412 207.692L105.593 208.117C103.568 211.029 101.542 213.942 99.6017 216.794ZM111.837 199.683L110.656 199.197C112.766 196.406 114.959 193.554 117.153 190.763L118.335 191.249C116.141 193.979 113.947 196.831 111.837 199.683ZM125.001 182.875L123.82 182.39C126.098 179.659 128.461 176.868 130.824 174.138L131.921 174.623C129.642 177.354 127.279 180.145 125.001 182.875ZM139.178 166.492L138.081 165.946C140.528 163.277 142.975 160.546 145.506 157.876L146.603 158.422C144.072 161.092 141.625 163.823 139.178 166.492ZM154.198 150.534L153.101 149.988C155.717 147.379 158.333 144.77 160.949 142.161L162.046 142.707C159.43 145.316 156.814 147.925 154.198 150.534ZM170.146 135.062L169.049 134.455C171.75 131.907 174.534 129.358 177.319 126.87L178.332 127.477C175.631 130.026 172.847 132.574 170.146 135.062ZM186.939 120.075L185.926 119.468C188.795 117.041 191.749 114.553 194.618 112.126L195.63 112.733C192.761 115.16 189.808 117.648 186.939 120.075ZM204.575 105.634L203.562 104.966C206.6 102.6 209.638 100.233 212.676 97.9276L213.688 98.595C210.651 100.901 207.528 103.267 204.575 105.634ZM222.971 91.6779L222.042 91.0104C225.165 88.7654 228.371 86.4597 231.578 84.2146L232.506 84.882C229.299 87.1271 226.093 89.3721 222.971 91.6779ZM242.21 78.2683L241.282 77.5402C244.573 75.3558 247.864 73.1714 251.155 71.0477L252.083 71.7758C248.792 73.8995 245.417 76.0839 242.21 78.2683ZM262.125 65.4654L261.281 64.7373C264.656 62.6743 268.116 60.5506 271.576 58.5483L272.419 59.2764C268.96 61.2787 265.5 63.4024 262.125 65.4654ZM282.799 53.2087L281.955 52.4806C285.415 50.4782 289.043 48.5366 292.587 46.5949L293.431 47.3837C289.802 49.2647 286.258 51.2671 282.799 53.2087ZM304.063 41.6194L303.304 40.8306C306.932 38.9497 310.561 37.0687 314.189 35.2484L314.949 36.0371C311.32 37.9181 307.692 39.7384 304.063 41.6194ZM326.003 30.6976L325.244 29.9088C328.956 28.1492 332.754 26.3895 336.467 24.6906L337.226 25.4794C333.513 27.1783 329.716 28.938 326.003 30.6976ZM1045.96 30.0908C1042.25 28.3312 1038.45 26.5715 1034.74 24.8726L1035.42 24.0838C1039.21 25.7828 1042.93 27.5424 1046.64 29.302L1045.96 30.0908ZM348.533 20.3825L347.858 19.533C351.656 17.8948 355.537 16.1958 359.335 14.6182L360.01 15.4677C356.212 17.0453 352.331 18.7442 348.533 20.3825ZM1023.35 19.7757C1019.55 18.1375 1015.67 16.4992 1011.79 14.8609L1012.46 14.0114C1016.35 15.589 1020.23 17.288 1024.02 18.9263L1023.35 19.7757ZM371.655 10.7349L370.98 9.88541C374.861 8.36849 378.827 6.79089 382.709 5.33464L383.3 6.18412C379.502 7.70105 375.536 9.21797 371.655 10.7349ZM1000.14 10.1888C996.262 8.67187 992.296 7.09427 988.33 5.63803L988.921 4.78856C992.887 6.2448 996.853 7.8224 1000.73 9.33932L1000.14 10.1888ZM395.282 1.81538L394.691 0.965908C398.657 -0.429657 402.708 -1.8859 406.674 -3.22079L407.264 -2.37132C403.298 -1.03643 399.248 0.419815 395.282 1.81538ZM976.432 1.26929C972.466 -0.126274 968.416 -1.58252 964.365 -2.91741L964.956 -3.76689C969.007 -2.432 973.057 -0.975746 977.023 0.419823L976.432 1.26929ZM419.416 -6.376L418.825 -7.22547C422.875 -8.56036 427.01 -9.83458 431.061 -11.0481L431.567 -10.138C427.517 -8.9851 423.382 -7.71089 419.416 -6.376ZM952.214 -6.92208C948.164 -8.1963 944.029 -9.53119 939.894 -10.7447L940.4 -11.6549C944.535 -10.4413 948.67 -9.10645 952.72 -7.83224L952.214 -6.92208ZM443.887 -13.8999L443.381 -14.8101C447.516 -16.0236 451.735 -17.1765 455.869 -18.3293L456.376 -17.4192C452.241 -16.2663 448.022 -15.1135 443.887 -13.8999ZM927.574 -14.446C923.439 -15.5989 919.22 -16.8124 915.085 -17.9046L915.592 -18.8148C919.727 -17.7226 923.946 -16.509 928.08 -15.3562L927.574 -14.446ZM468.949 -20.6957L468.527 -21.6059C472.746 -22.6981 476.965 -23.7296 481.185 -24.7004L481.606 -23.7903C477.387 -22.8194 473.168 -21.7879 468.949 -20.6957ZM902.428 -21.1812C898.209 -22.2127 893.989 -23.3048 889.77 -24.2757L890.192 -25.1858C894.411 -24.215 898.715 -23.1228 902.934 -22.0913L902.428 -21.1812ZM494.348 -26.7634L493.926 -27.6736C498.146 -28.6444 502.534 -29.5546 506.753 -30.404L507.09 -29.4939C502.871 -28.5837 498.568 -27.6736 494.348 -26.7634ZM877.028 -27.1882C872.809 -28.0983 868.421 -29.0085 864.202 -29.9186L864.54 -30.8288C868.843 -29.9793 873.147 -29.0691 877.45 -28.0983L877.028 -27.1882ZM520.085 -32.0423L519.748 -32.9525C524.052 -33.7413 528.439 -34.5301 532.743 -35.3189L533.081 -34.4087C528.693 -33.6199 524.389 -32.8311 520.085 -32.0423ZM851.207 -32.4064C846.903 -33.1952 842.515 -33.984 838.212 -34.7121L838.549 -35.6223C842.853 -34.8941 847.241 -34.1053 851.544 -33.3165L851.207 -32.4064ZM546.076 -36.5324L545.822 -37.5032C550.126 -38.1707 554.598 -38.8381 558.986 -39.4449L559.239 -38.4741C554.852 -37.8673 550.464 -37.1999 546.076 -36.5324ZM825.132 -36.8358C820.829 -37.5032 816.356 -38.1707 811.969 -38.7774L812.222 -39.7483C816.61 -39.1415 820.998 -38.4741 825.385 -37.8066L825.132 -36.8358ZM572.319 -40.2944L572.066 -41.2652C576.454 -41.8113 580.926 -42.3574 585.314 -42.8428L585.483 -41.872C581.179 -41.3866 576.707 -40.8405 572.319 -40.2944ZM798.889 -40.5371C794.501 -41.0832 790.029 -41.6293 785.641 -42.1147L785.81 -43.0855C790.198 -42.6001 794.67 -42.054 799.058 -41.5079L798.889 -40.5371ZM598.815 -43.2675L598.647 -44.2384C603.035 -44.6631 607.507 -45.0878 611.979 -45.4519L612.148 -44.4811C607.676 -44.0563 603.203 -43.6923 598.815 -43.2675ZM772.393 -43.4496C768.005 -43.8743 763.532 -44.2384 759.06 -44.6024L759.229 -45.5733C763.701 -45.2092 768.173 -44.8451 772.561 -44.4204L772.393 -43.4496ZM625.396 -45.3912L625.312 -46.3621C629.7 -46.6654 634.256 -46.9082 638.644 -47.1509L638.729 -46.18C634.256 -45.998 629.784 -45.6946 625.396 -45.3912ZM745.727 -45.5733C741.339 -45.8766 736.783 -46.1194 732.395 -46.3621L732.479 -47.3329C736.951 -47.0902 741.424 -46.8475 745.896 -46.5441L745.727 -45.5733ZM652.061 -46.7868L651.977 -47.7576C656.449 -47.9397 660.922 -48.061 665.394 -48.1824L665.478 -47.2115C661.006 -47.0902 656.449 -46.9688 652.061 -46.7868ZM718.978 -46.9081C714.505 -47.0902 710.033 -47.2115 705.561 -47.2722V-48.243C710.033 -48.1217 714.505 -48.0003 718.978 -47.879V-46.9081ZM678.811 -47.4542V-48.4251C683.283 -48.4858 687.756 -48.4858 692.228 -48.4251V-47.4542C687.756 -47.4542 683.199 -47.4542 678.811 -47.4542Z" fill="white" fill-opacity="0.2"/>
<path d="M979.212 707.486C952.546 707.486 923.687 705.362 893.056 701.176C836.35 693.348 776.1 678.725 713.994 657.731C649.693 635.948 586.237 608.219 525.312 575.271C464.387 542.323 409.706 506.221 362.789 467.812C317.39 430.739 281.19 393.18 254.947 356.167C228.788 319.154 214.02 284.507 211.067 253.259C208.029 220.857 217.902 193.492 240.433 171.952C274.777 139.065 335.87 122.743 417.132 124.684C456.202 125.595 498.984 130.813 544.298 140.036C590.034 149.38 637.458 162.729 685.219 179.658L684.628 180.507C588.684 146.467 496.115 127.476 417.048 125.595C336.292 123.653 275.536 139.854 241.445 172.498C197.228 214.79 202.46 279.835 256.128 355.742C309.88 431.71 405.74 509.437 526.156 574.482C646.487 639.528 776.944 684.186 893.393 700.205C1009.67 716.223 1098.02 701.722 1142.24 659.43C1175.74 627.392 1180.97 581.945 1157.35 527.943L1158.61 527.64C1182.32 581.945 1177.01 627.756 1143.25 660.037C1120.72 681.577 1086.89 696.018 1042.75 702.935C1023.18 705.969 1002 707.486 979.212 707.486Z" fill="white" fill-opacity="0.2"/>
<path d="M695.348 658.885C691.467 658.885 687.585 658.885 683.703 658.824C589.7 658.278 498.566 651.301 412.832 638.012C330.051 625.149 255.709 607.067 192 584.131C160.609 572.845 132.087 560.467 107.279 547.3C82.2166 534.012 60.7831 519.874 43.4845 505.191C7.45263 474.67 -10.6898 442.329 -10.3523 409.078C-10.0992 383.412 1.37703 358.231 23.5699 334.142C45.0878 310.903 76.3941 288.999 116.645 269.036C156.39 249.377 204.067 231.902 258.41 217.218C313.259 202.352 373.931 190.581 438.653 182.208L438.906 183.178C308.956 200.047 197.822 230.021 117.405 269.886C35.2992 310.6 -8.49586 358.777 -9.00217 409.139C-9.76162 474.488 61.8801 536.318 192.59 583.282C323.469 630.306 497.891 656.822 683.619 657.854C869.432 658.885 1044.36 634.432 1176.25 588.864C1307.97 543.356 1380.88 482.376 1381.64 417.027C1382.15 367.575 1340.97 319.641 1262.41 278.502L1263.17 277.713C1342.06 319.095 1383.5 367.272 1382.91 417.027C1382.57 450.278 1363.75 482.376 1326.96 512.472C1309.32 526.913 1287.55 540.869 1262.24 553.853C1237.18 566.717 1208.4 578.792 1176.76 589.714C1112.54 611.921 1037.86 629.154 954.744 641.046C872.554 652.878 785.217 658.885 695.348 658.885Z" fill="white" fill-opacity="0.2"/>
<path d="M629.617 825.623C622.697 825.623 615.862 825.259 609.027 824.531C571.983 820.587 538.145 806.085 508.695 781.511C480.258 757.786 456.883 725.688 439.332 686.066C421.78 646.505 410.894 601.422 407.013 552.152C402.962 501.123 406.591 447.788 417.729 393.604C428.868 339.419 447.011 287.601 471.482 239.606C495.109 193.249 523.715 152.413 556.456 118.191C589.197 83.9694 624.469 58.1211 661.261 41.3136C699.402 23.8993 737.544 17.1035 774.672 21.0475C811.717 24.9915 845.555 39.4932 875.005 64.0674C903.442 87.7921 926.816 119.89 944.368 159.512C961.92 199.073 972.805 244.156 976.687 293.426C980.737 344.455 977.109 397.79 965.97 451.975C954.832 506.159 936.689 557.977 912.218 605.973C888.59 652.33 859.984 693.165 827.243 727.387C794.503 761.609 759.23 787.457 722.439 804.265C691.301 818.463 660.164 825.623 629.617 825.623ZM418.404 393.664L419.08 393.725C396.971 500.82 404.65 604.517 440.682 685.763C476.629 766.888 536.542 815.793 609.28 823.56C682.019 831.327 759.146 796.984 826.231 726.841C893.485 656.638 942.596 558.948 964.704 451.853C986.813 344.759 979.134 241.062 943.102 159.816C907.155 78.6905 847.242 29.7849 774.504 22.0183C701.765 14.2517 624.638 48.5948 557.553 118.737C490.299 188.94 441.188 286.63 419.08 393.725L418.404 393.664Z" fill="white" fill-opacity="0.2"/>
<path d="M383.633 693.23V692.259C388.105 692.259 392.578 692.259 397.05 692.198V693.169C392.578 693.23 388.021 693.23 383.633 693.23ZM370.216 693.23C365.744 693.169 361.271 693.169 356.799 693.108V692.137C361.187 692.198 365.744 692.259 370.216 692.259V693.23ZM410.383 692.987V692.016C414.855 691.955 419.327 691.834 423.8 691.713L423.884 692.684C419.412 692.805 414.855 692.926 410.383 692.987ZM343.382 692.805C338.91 692.684 334.437 692.562 329.965 692.441L330.049 691.47C334.522 691.591 338.994 691.713 343.466 691.834L343.382 692.805ZM437.217 692.32L437.132 691.349C441.605 691.167 446.077 691.045 450.465 690.803L450.549 691.773C446.161 691.955 441.605 692.137 437.217 692.32ZM316.632 691.955C312.16 691.773 307.688 691.591 303.215 691.349L303.3 690.378C307.688 690.621 312.244 690.803 316.632 690.985V691.955ZM463.966 691.167L463.882 690.196C468.354 689.953 472.827 689.71 477.215 689.468L477.299 690.439C472.911 690.681 468.354 690.924 463.966 691.167ZM289.883 690.621C285.495 690.378 280.938 690.074 276.55 689.771L276.635 688.8C281.107 689.104 285.579 689.346 289.967 689.65L289.883 690.621ZM490.632 689.528L490.463 688.558C494.935 688.254 499.407 687.951 503.795 687.587L503.964 688.558C499.576 688.922 495.104 689.225 490.632 689.528ZM263.218 688.861C258.745 688.497 254.273 688.194 249.885 687.769L250.054 686.798C254.442 687.162 258.914 687.526 263.386 687.829L263.218 688.861ZM236.552 686.616C232.164 686.191 227.692 685.766 223.304 685.342L223.473 684.371C227.861 684.796 232.333 685.281 236.721 685.645L236.552 686.616ZM209.971 683.885C205.583 683.4 201.111 682.854 196.723 682.308L196.976 681.337C201.364 681.883 205.837 682.368 210.225 682.915L209.971 683.885ZM183.559 680.67C179.171 680.063 174.699 679.456 170.396 678.849L170.649 677.878C174.952 678.485 179.425 679.092 183.812 679.699L183.559 680.67ZM157.232 676.908C152.844 676.24 148.456 675.573 144.152 674.845L144.49 673.934C148.793 674.663 153.181 675.33 157.569 675.997L157.232 676.908ZM131.157 672.66C126.769 671.871 122.466 671.083 118.162 670.294L118.5 669.384C122.803 670.172 127.107 670.961 131.495 671.75L131.157 672.66ZM105.167 667.806C100.863 666.957 96.4754 666.046 92.2562 665.197L92.5937 664.287C96.8129 665.197 101.201 666.046 105.504 666.896L105.167 667.806ZM79.4299 662.345C75.1263 661.374 70.9071 660.403 66.6879 659.372L67.1098 658.462C71.329 659.433 75.6326 660.464 79.8518 661.374L79.4299 662.345ZM53.946 656.338C49.7268 655.246 45.5076 654.154 41.2885 653.062L41.7948 652.151C45.9296 653.244 50.1488 654.336 54.3679 655.428L53.946 656.338ZM28.7997 649.603C24.6649 648.45 20.4457 647.237 16.3953 645.962L16.9016 645.052C20.952 646.266 25.1712 647.479 29.306 648.632L28.7997 649.603ZM4.07527 642.2C-0.0595245 640.926 -4.10994 639.531 -8.16037 638.196L-7.56969 637.346C-3.60365 638.681 0.531158 640.016 4.58157 641.351L4.07527 642.2ZM-20.2272 634.009C-24.2777 632.553 -28.2437 631.096 -32.1253 629.64L-31.5347 628.791C-27.653 630.247 -23.6026 631.764 -19.6366 633.16L-20.2272 634.009ZM-43.939 625.029C-47.9051 623.451 -51.7867 621.813 -55.584 620.175L-54.9089 619.325C-51.1117 620.963 -47.23 622.541 -43.3484 624.179L-43.939 625.029ZM-66.9758 615.078C-70.7731 613.318 -74.5703 611.559 -78.1988 609.738L-77.4394 608.949C-73.8109 610.709 -70.098 612.529 -66.3007 614.289L-66.9758 615.078ZM-89.0843 604.156C-92.7128 602.214 -96.2569 600.273 -99.7167 598.27L-98.8728 597.542C-95.4131 599.484 -91.869 601.486 -88.2405 603.367L-89.0843 604.156ZM-110.011 592.142C-113.387 590.018 -116.762 587.834 -119.969 585.65L-119.041 584.921C-115.834 587.106 -112.543 589.229 -109.168 591.353L-110.011 592.142ZM-129.504 578.854C-132.626 576.487 -135.664 574.121 -138.533 571.694L-137.521 571.087C-134.652 573.453 -131.614 575.82 -128.491 578.186L-129.504 578.854ZM-147.056 564.291C-149.841 561.682 -152.456 559.073 -154.904 556.464L-153.807 555.918C-151.359 558.527 -148.744 561.136 -146.043 563.684L-147.056 564.291ZM-161.992 548.273C-164.27 545.481 -166.38 542.569 -168.236 539.717L-167.055 539.292C-165.198 542.144 -163.089 544.996 -160.81 547.787L-161.992 548.273ZM-173.552 530.858C-175.156 527.824 -176.59 524.73 -177.772 521.696L-176.506 521.453C-175.324 524.487 -173.89 527.521 -172.287 530.555L-173.552 530.858ZM-180.809 512.291C-181.653 509.136 -182.244 505.92 -182.581 502.765L-181.231 502.704C-180.809 505.859 -180.219 509.015 -179.459 512.17L-180.809 512.291ZM-181.822 493.057H-183.172C-183.172 489.841 -182.835 486.625 -182.413 483.409L-181.063 483.53C-181.484 486.685 -181.738 489.901 -181.822 493.057ZM-179.037 474.065L-180.387 473.883C-179.459 470.788 -178.362 467.633 -177.096 464.538L-175.831 464.842C-177.012 467.815 -178.109 470.97 -179.037 474.065ZM-171.358 455.74L-172.624 455.376C-171.021 452.464 -169.164 449.491 -167.139 446.578L-165.958 447.003C-167.899 449.855 -169.671 452.767 -171.358 455.74ZM-159.46 438.569L-160.642 438.083C-158.363 435.353 -155.916 432.622 -153.385 429.953L-152.288 430.499C-154.819 433.108 -157.266 435.838 -159.46 438.569ZM-144.356 422.732L-145.368 422.125C-142.668 419.637 -139.799 417.15 -136.761 414.723L-135.748 415.39C-138.786 417.817 -141.655 420.305 -144.356 422.732ZM-126.719 408.352L-127.648 407.684C-124.61 405.439 -121.319 403.194 -118.028 400.949L-117.1 401.677C-120.391 403.862 -123.597 406.107 -126.719 408.352ZM-107.142 395.245L-107.986 394.517C-104.611 392.454 -101.151 390.391 -97.6071 388.389L-96.7632 389.117C-100.307 391.18 -103.767 393.243 -107.142 395.245ZM-86.0465 383.413L-86.806 382.625C-83.4306 380.865 -79.8865 379.105 -76.4268 377.346L-75.6673 378.134C-79.2114 379.894 -82.7555 381.654 -86.0465 383.413Z" fill="white" fill-opacity="0.2"/>
<path d="M911.202 484.196V483.226C1061.74 483.226 1203.34 462.595 1309.83 425.036C1416.15 387.599 1474.72 337.783 1474.72 284.933C1474.72 253.321 1454.13 223.104 1413.62 195.071C1374.89 168.312 1318.35 144.588 1250 126.506L1250.42 125.596C1284.6 134.637 1315.82 145.073 1343.42 156.602C1371.09 168.191 1395.06 180.933 1414.55 194.343C1434.38 208.056 1449.74 222.618 1460.03 237.545C1470.67 252.957 1476.07 268.854 1476.07 284.873C1476.07 311.813 1461.13 337.965 1431.6 362.539C1403.16 386.264 1362.4 407.561 1310.51 425.825C1258.61 444.089 1198.28 458.469 1131.02 468.481C1061.32 478.917 987.401 484.196 911.202 484.196Z" fill="white" fill-opacity="0.2"/>
<path d="M689.859 754.147V753.176C694.332 753.176 698.888 753.115 703.276 752.994L703.361 753.965C698.889 754.086 694.332 754.147 689.859 754.147ZM676.358 754.086C671.886 754.025 667.329 753.904 662.857 753.722L662.941 752.751C667.413 752.933 671.886 753.054 676.358 753.115V754.086ZM716.862 753.479L716.778 752.508C721.25 752.326 725.722 752.023 730.195 751.719L730.279 752.69C725.807 752.994 721.25 753.236 716.862 753.479ZM649.44 753.054C644.967 752.812 640.495 752.448 636.023 752.144L636.191 751.173C640.664 751.537 645.136 751.841 649.608 752.084L649.44 753.054ZM743.696 751.659L743.527 750.688C747.915 750.263 752.472 749.839 756.86 749.353L757.029 750.324C752.641 750.809 748.169 751.234 743.696 751.659ZM622.606 750.87C618.133 750.445 613.661 749.899 609.273 749.353L609.526 748.382C613.914 748.928 618.386 749.414 622.859 749.838L622.606 750.87ZM770.361 748.686L770.108 747.715C774.496 747.108 778.884 746.501 783.272 745.834L783.525 746.805C779.137 747.472 774.749 748.14 770.361 748.686ZM596.025 747.654C591.637 747.047 587.165 746.319 582.861 745.591L583.198 744.681C587.586 745.409 591.974 746.077 596.362 746.683L596.025 747.654ZM796.689 744.62L796.352 743.71C800.655 742.921 805.043 742.133 809.347 741.283L809.684 742.193C805.381 743.043 800.993 743.892 796.689 744.62ZM569.697 743.285C565.394 742.497 561.006 741.586 556.702 740.676L557.04 739.766C561.343 740.676 565.647 741.526 570.035 742.315L569.697 743.285ZM822.595 739.463L822.173 738.553C826.477 737.582 830.696 736.611 834.915 735.579L835.337 736.49C831.202 737.521 826.898 738.492 822.595 739.463ZM543.791 737.885C539.488 736.914 535.184 735.822 531.049 734.791L531.471 733.88C535.69 734.973 539.994 736.004 544.213 736.975L543.791 737.885ZM848.079 733.213L847.572 732.303C851.707 731.211 855.927 729.997 860.061 728.784L860.568 729.694C856.517 730.907 852.298 732.121 848.079 733.213ZM518.392 731.332C514.257 730.179 510.038 728.966 505.903 727.691L506.409 726.781C510.544 728.055 514.763 729.269 518.898 730.422L518.392 731.332ZM873.056 725.932L872.55 725.022C876.601 723.747 880.735 722.352 884.786 721.017L885.376 721.866C881.326 723.262 877.191 724.597 873.056 725.932ZM493.499 723.808C489.448 722.473 485.313 721.078 481.347 719.621L481.938 718.772C485.904 720.167 490.039 721.624 494.089 722.959L493.499 723.808ZM897.443 717.558L896.853 716.709C900.819 715.253 904.785 713.736 908.751 712.158L909.426 713.008C905.375 714.585 901.409 716.102 897.443 717.558ZM469.281 715.192C465.315 713.675 461.348 712.097 457.467 710.52L458.142 709.67C462.024 711.248 465.99 712.826 469.956 714.342L469.281 715.192ZM921.071 708.214L920.396 707.365C924.277 705.726 928.075 704.027 931.872 702.328L932.547 703.117C928.75 704.877 924.868 706.576 921.071 708.214ZM445.737 705.544C441.94 703.845 438.059 702.146 434.261 700.326L435.021 699.537C438.734 701.297 442.615 703.057 446.413 704.695L445.737 705.544ZM943.939 697.899L943.179 697.11C946.892 695.351 950.605 693.47 954.233 691.589L954.993 692.378C951.364 694.258 947.652 696.079 943.939 697.899ZM423.123 694.926C419.41 693.106 415.697 691.164 412.153 689.283L412.912 688.494C416.541 690.436 420.169 692.317 423.882 694.137L423.123 694.926ZM965.878 686.613L965.035 685.824C968.579 683.883 972.207 681.88 975.667 679.878L976.511 680.606C973.051 682.669 969.423 684.672 965.878 686.613ZM401.352 683.337C397.808 681.334 394.263 679.271 390.804 677.208L391.648 676.48C395.107 678.543 398.567 680.606 402.111 682.548L401.352 683.337ZM986.89 674.478L986.046 673.75C989.422 671.687 992.881 669.502 996.172 667.379L997.1 668.107C993.725 670.23 990.35 672.354 986.89 674.478ZM380.593 670.898C377.218 668.774 373.843 666.59 370.636 664.345L371.564 663.617C374.855 665.801 378.146 667.985 381.522 670.17L380.593 670.898ZM1006.97 661.432L1006.05 660.765C1009.25 658.52 1012.46 656.275 1015.66 653.969L1016.59 654.636C1013.47 656.942 1010.18 659.187 1006.97 661.432ZM360.848 657.61C357.641 655.365 354.519 652.998 351.397 650.632L352.409 649.964C355.447 652.27 358.654 654.636 361.86 656.881L360.848 657.61ZM1025.88 647.598L1024.86 646.93C1027.9 644.564 1030.94 642.137 1033.89 639.71L1034.9 640.317C1032.04 642.804 1029 645.232 1025.88 647.598ZM342.283 643.533C339.33 641.106 336.292 638.678 333.423 636.191L334.435 635.584C337.304 638.011 340.258 640.499 343.296 642.865L342.283 643.533ZM1043.68 632.975L1042.67 632.368C1045.54 629.88 1048.32 627.332 1051.11 624.783L1052.2 625.39C1049.42 627.939 1046.55 630.487 1043.68 632.975ZM324.816 628.727C322.031 626.179 319.246 623.631 316.546 621.021L317.643 620.415C320.343 622.963 323.128 625.572 325.828 628.06L324.816 628.727ZM1060.3 617.624L1059.21 617.077C1061.82 614.468 1064.44 611.799 1066.97 609.189L1068.07 609.736C1065.54 612.345 1062.92 615.014 1060.3 617.624ZM308.698 613.194C306.082 610.585 303.551 607.855 301.104 605.185L302.201 604.639C304.648 607.308 307.264 609.978 309.795 612.648L308.698 613.194ZM1075.58 601.605L1074.48 601.059C1076.93 598.328 1079.29 595.598 1081.65 592.807L1082.83 593.292C1080.47 596.083 1078.02 598.874 1075.58 601.605ZM293.763 596.993C291.4 594.263 289.037 591.472 286.843 588.681L288.024 588.195C290.303 590.986 292.581 593.778 294.944 596.508L293.763 596.993ZM1089.58 584.919L1088.4 584.433C1090.6 581.642 1092.79 578.73 1094.82 575.939L1096 576.363C1093.97 579.215 1091.78 582.128 1089.58 584.919ZM280.177 580.247C278.067 577.395 275.958 574.543 273.932 571.63L275.114 571.206C277.139 574.058 279.249 576.97 281.358 579.761L280.177 580.247ZM1102.16 567.686L1100.98 567.262C1102.92 564.349 1104.86 561.437 1106.71 558.524L1107.9 558.949C1106.04 561.861 1104.1 564.774 1102.16 567.686ZM268.026 562.893C266.085 559.98 264.228 557.007 262.456 554.034L263.722 553.67C265.494 556.643 267.35 559.556 269.291 562.468L268.026 562.893ZM1113.3 550.03L1112.03 549.665C1113.72 546.692 1115.41 543.658 1117.01 540.685L1118.28 541.049C1116.67 544.022 1114.98 547.056 1113.3 550.03ZM257.224 545.175C255.537 542.202 253.933 539.168 252.415 536.134L253.68 535.831C255.199 538.865 256.802 541.899 258.49 544.872L257.224 545.175ZM1123 531.887L1121.73 531.584C1123.17 528.55 1124.6 525.455 1126.04 522.422L1127.3 522.725C1125.87 525.759 1124.44 528.853 1123 531.887ZM247.942 526.972C246.508 523.938 245.158 520.844 243.807 517.749L245.073 517.446C246.339 520.54 247.773 523.635 249.124 526.669L247.942 526.972ZM1131.1 513.381L1129.84 513.138C1131.1 510.043 1132.28 506.888 1133.38 503.794L1134.65 504.036C1133.55 507.131 1132.37 510.286 1131.1 513.381ZM240.094 508.405C238.913 505.311 237.816 502.155 236.719 499L237.985 498.758C238.997 501.852 240.179 505.007 241.276 508.102L240.094 508.405ZM1137.77 494.571L1136.5 494.389C1137.51 491.234 1138.44 488.078 1139.29 484.923L1140.64 485.105C1139.71 488.26 1138.78 491.476 1137.77 494.571ZM233.85 489.595C232.922 486.44 232.078 483.285 231.319 480.069L232.669 479.887C233.428 483.042 234.272 486.197 235.2 489.353L233.85 489.595ZM1143 475.518L1141.65 475.336C1142.41 472.181 1143.08 468.965 1143.67 465.749L1145.02 465.871C1144.35 469.147 1143.67 472.363 1143 475.518ZM229.125 470.543C228.45 467.327 227.859 464.111 227.353 460.895L228.703 460.774C229.209 463.99 229.8 467.206 230.475 470.361L229.125 470.543ZM1146.63 456.284L1145.28 456.162C1145.78 452.946 1146.12 449.731 1146.54 446.515L1147.89 446.575C1147.47 449.852 1147.05 453.129 1146.63 456.284ZM225.918 451.247C225.496 448.032 225.159 444.816 224.905 441.6L226.256 441.539C226.509 444.755 226.846 447.971 227.268 451.187L225.918 451.247ZM1148.65 436.928L1147.3 436.867C1147.56 433.651 1147.64 430.375 1147.73 427.219H1149.08C1148.99 430.496 1148.91 433.712 1148.65 436.928ZM224.315 431.952C224.146 428.736 224.146 425.46 224.146 422.244H225.496C225.496 425.46 225.581 428.736 225.665 431.892L224.315 431.952ZM1147.81 417.572C1147.73 414.356 1147.64 411.14 1147.47 407.924L1148.82 407.864C1148.99 411.079 1149.16 414.356 1149.16 417.572H1147.81ZM225.665 412.536H224.315C224.483 409.32 224.652 406.043 224.905 402.827L226.256 402.888C225.918 406.104 225.749 409.32 225.665 412.536ZM1146.71 398.277C1146.38 395.061 1146.04 391.845 1145.62 388.629L1146.97 388.508C1147.39 391.723 1147.81 394.939 1148.06 398.155L1146.71 398.277ZM227.184 393.24L225.834 393.18C226.256 389.964 226.677 386.748 227.184 383.532L228.534 383.653C228.028 386.809 227.521 390.025 227.184 393.24ZM1144.1 378.981C1143.51 375.826 1142.92 372.55 1142.16 369.394L1143.51 369.273C1144.18 372.428 1144.86 375.705 1145.45 378.86L1144.1 378.981ZM230.306 374.006L228.956 373.884C229.631 370.729 230.306 367.453 231.065 364.298L232.416 364.48C231.656 367.635 230.897 370.851 230.306 374.006ZM1139.88 359.929C1139.03 356.774 1138.11 353.618 1137.18 350.463L1138.53 350.281C1139.46 353.436 1140.38 356.592 1141.23 359.747L1139.88 359.929ZM234.947 354.953L233.597 354.771C234.525 351.616 235.453 348.4 236.466 345.306L237.732 345.548C236.804 348.582 235.791 351.798 234.947 354.953ZM1134.05 341.058C1132.96 337.964 1131.78 334.809 1130.6 331.714L1131.86 331.471C1133.04 334.566 1134.22 337.721 1135.32 340.816L1134.05 341.058ZM241.107 336.083L239.841 335.84C241.023 332.746 242.204 329.59 243.47 326.496L244.736 326.799C243.47 329.833 242.204 332.988 241.107 336.083ZM1126.8 322.491C1125.45 319.457 1124.01 316.363 1122.58 313.329L1123.84 313.026C1125.28 316.059 1126.71 319.154 1128.06 322.248L1126.8 322.491ZM248.702 317.576L247.436 317.273C248.87 314.239 250.305 311.145 251.824 308.111L253.09 308.414C251.655 311.387 250.136 314.482 248.702 317.576ZM1118.02 304.227C1116.42 301.254 1114.82 298.22 1113.04 295.247L1114.31 294.883C1116 297.856 1117.68 300.89 1119.29 303.863L1118.02 304.227ZM257.899 299.373L256.634 299.009C258.237 296.036 260.009 293.002 261.781 290.029L263.047 290.393C261.275 293.366 259.503 296.339 257.899 299.373ZM1107.73 286.388C1105.87 283.476 1104.01 280.503 1102.07 277.651L1103.25 277.226C1105.2 280.139 1107.14 283.051 1108.91 286.024L1107.73 286.388ZM268.532 281.595L267.35 281.17C269.207 278.258 271.232 275.285 273.257 272.433L274.439 272.857C272.329 275.709 270.388 278.682 268.532 281.595ZM1096 268.974C1093.97 266.122 1091.78 263.271 1089.58 260.479L1090.77 259.994C1092.96 262.785 1095.07 265.698 1097.18 268.549L1096 268.974ZM280.599 264.241L279.417 263.756C281.527 260.904 283.805 258.052 285.999 255.261L287.181 255.747C284.902 258.538 282.708 261.39 280.599 264.241ZM1082.92 252.045C1080.64 249.315 1078.28 246.524 1075.83 243.793L1076.93 243.247C1079.29 245.978 1081.74 248.769 1084.02 251.499L1082.92 252.045ZM294.1 247.434L292.919 246.948C295.281 244.218 297.729 241.427 300.176 238.757L301.273 239.303C298.91 241.973 296.463 244.703 294.1 247.434ZM1068.49 235.723C1065.96 233.053 1063.43 230.384 1060.81 227.775L1061.91 227.228C1064.52 229.838 1067.14 232.507 1069.67 235.177L1068.49 235.723ZM308.952 231.233L307.855 230.687C310.47 228.017 313.086 225.408 315.787 222.799L316.884 223.345C314.183 225.954 311.483 228.624 308.952 231.233ZM1052.79 220.008C1050.09 217.459 1047.31 214.911 1044.44 212.423L1045.45 211.817C1048.24 214.304 1051.11 216.853 1053.81 219.462L1052.79 220.008ZM325.069 215.7L324.056 215.093C326.841 212.545 329.71 210.057 332.579 207.569L333.592 208.176C330.723 210.664 327.854 213.151 325.069 215.7ZM1035.83 204.96C1032.88 202.533 1029.93 200.106 1026.89 197.739L1027.9 197.072C1030.94 199.438 1033.98 201.866 1036.85 204.353L1035.83 204.96ZM342.367 200.895L341.355 200.227C344.308 197.8 347.43 195.434 350.468 193.067L351.481 193.735C348.443 196.101 345.405 198.468 342.367 200.895ZM1017.69 190.701C1014.57 188.395 1011.36 186.09 1008.15 183.844L1009.08 183.177C1012.29 185.422 1015.5 187.728 1018.62 190.033L1017.69 190.701ZM360.932 186.818L360.004 186.15C363.21 183.844 366.417 181.599 369.708 179.415L370.636 180.143C367.345 182.267 364.138 184.512 360.932 186.818ZM998.366 177.17C995.075 174.986 991.7 172.801 988.324 170.738L989.168 170.01C992.544 172.134 995.919 174.318 999.21 176.503L998.366 177.17ZM380.593 173.529L379.665 172.801C383.04 170.678 386.5 168.554 389.875 166.491L390.719 167.219C387.344 169.282 383.884 171.406 380.593 173.529ZM978.03 164.489C974.57 162.426 971.026 160.423 967.482 158.482L968.326 157.693C971.87 159.634 975.414 161.697 978.958 163.7L978.03 164.489ZM401.183 161.151L400.339 160.423C403.883 158.421 407.427 156.419 411.056 154.538L411.815 155.326C408.356 157.147 404.727 159.149 401.183 161.151ZM956.596 152.657C952.968 150.776 949.255 148.895 945.542 147.074L946.301 146.285C950.014 148.106 953.727 149.987 957.356 151.868L956.596 152.657ZM422.87 149.623L422.11 148.834C425.823 147.014 429.536 145.193 433.249 143.373L434.008 144.162C430.295 145.921 426.498 147.802 422.87 149.623ZM934.319 141.795C930.522 140.036 926.64 138.337 922.843 136.699L923.518 135.849C927.399 137.487 931.281 139.247 934.994 140.946L934.319 141.795ZM445.316 139.004L444.641 138.155C448.438 136.456 452.319 134.818 456.201 133.179L456.876 134.029C453.079 135.667 449.113 137.305 445.316 139.004ZM911.113 131.844C907.232 130.267 903.181 128.75 899.215 127.233L899.806 126.383C903.772 127.9 907.822 129.417 911.704 130.995L911.113 131.844ZM468.69 129.357L468.015 128.507C471.981 126.99 475.947 125.473 479.997 124.017L480.588 124.867C476.622 126.323 472.572 127.84 468.69 129.357ZM887.148 122.925C883.098 121.529 879.048 120.134 874.913 118.86L875.419 118.01C879.469 119.345 883.604 120.68 887.655 122.075L887.148 122.925ZM492.739 120.68L492.148 119.83C496.199 118.495 500.334 117.161 504.469 115.886L504.975 116.796C500.924 118.01 496.79 119.345 492.739 120.68ZM862.593 115.037C858.458 113.823 854.239 112.61 850.104 111.457L850.61 110.547C854.83 111.7 859.049 112.913 863.183 114.127L862.593 115.037ZM517.379 113.095L516.873 112.185C521.008 110.972 525.311 109.819 529.446 108.726L529.868 109.637C525.818 110.729 521.598 111.882 517.379 113.095ZM837.446 108.18C833.227 107.149 828.924 106.117 824.62 105.147L825.042 104.236C829.346 105.207 833.649 106.239 837.868 107.27L837.446 108.18ZM542.694 106.481L542.272 105.571C546.492 104.54 550.88 103.569 555.099 102.659L555.521 103.569C551.217 104.54 546.914 105.511 542.694 106.481ZM811.709 102.416C807.406 101.567 803.018 100.717 798.714 99.9283L799.052 99.0182C803.44 99.807 807.828 100.656 812.131 101.506L811.709 102.416ZM568.431 101.02L568.094 100.11C572.397 99.2609 576.785 98.4721 581.173 97.7439L581.511 98.6541C577.123 99.3822 572.735 100.171 568.431 101.02ZM785.635 97.7439C781.247 97.0765 776.859 96.4091 772.471 95.8023L772.724 94.8315C777.112 95.4382 781.584 96.1057 785.972 96.7731L785.635 97.7439ZM594.59 96.5911L594.337 95.6203C598.725 94.9528 603.197 94.346 607.585 93.8L607.839 94.7708C603.366 95.3169 598.894 95.9236 594.59 96.5911ZM768.336 95.2562C763.948 94.7101 759.476 94.164 755.088 93.6786L755.257 92.7078C759.645 93.1932 764.201 93.7393 768.589 94.2854L768.336 95.2562ZM621.002 93.2539L620.834 92.283C625.306 91.7976 629.778 91.4336 634.251 91.0695L634.419 92.0403C629.947 92.4044 625.39 92.8291 621.002 93.2539ZM741.755 92.3437C737.283 91.9796 732.811 91.6156 728.338 91.3122L728.423 90.3414C732.895 90.6447 737.367 91.0088 741.84 91.3729L741.755 92.3437ZM647.752 91.0695L647.668 90.0987C652.14 89.856 656.697 89.6132 661.169 89.4312L661.253 90.402C656.697 90.5841 652.224 90.8268 647.752 91.0695ZM714.921 90.5841C710.449 90.4021 705.977 90.22 701.504 90.0987L701.589 89.1278C706.061 89.2492 710.618 89.3705 715.09 89.6133L714.921 90.5841ZM674.586 90.038V89.0672C678.383 89.0065 682.349 88.9458 686.147 88.9458C686.822 88.9458 687.412 88.9458 688.087 88.9458V89.9166C687.412 89.9166 686.822 89.9166 686.147 89.9166C682.265 89.9166 678.383 89.9773 674.586 90.038Z" fill="white" fill-opacity="0.2"/>
<path d="M947.732 773.685C943.851 772.168 939.885 770.53 936.003 769.013L936.678 768.164C940.56 769.741 944.526 771.319 948.407 772.836L947.732 773.685ZM924.358 764.28C920.477 762.703 916.595 761.065 912.798 759.487L913.473 758.638C917.27 760.215 921.152 761.853 925.033 763.431L924.358 764.28ZM901.237 754.572C897.44 752.934 893.558 751.296 889.761 749.597L890.436 748.747C894.233 750.385 898.115 752.084 901.912 753.723L901.237 754.572ZM878.285 744.56C874.487 742.862 870.69 741.162 866.893 739.464L867.568 738.675C871.281 740.374 875.163 742.073 878.96 743.772L878.285 744.56ZM855.67 734.306C851.873 732.546 848.075 730.787 844.447 729.088L845.206 728.299C848.919 730.059 852.716 731.818 856.429 733.517L855.67 734.306ZM833.224 723.809C829.511 722.049 825.798 720.229 822.085 718.409L822.845 717.62C826.557 719.44 830.27 721.2 833.983 722.959L833.224 723.809ZM811.031 713.009C807.318 711.188 803.69 709.307 800.061 707.487L800.82 706.698C804.449 708.518 808.162 710.399 811.79 712.22L811.031 713.009ZM789.091 701.905C785.463 700.024 781.834 698.143 778.29 696.262L779.049 695.473C782.594 697.354 786.307 699.235 789.851 701.116L789.091 701.905ZM767.489 690.497C763.945 688.556 760.316 686.614 756.772 684.672L757.616 683.884C761.16 685.825 764.704 687.767 768.248 689.708L767.489 690.497ZM746.224 678.726C742.68 676.724 739.136 674.721 735.676 672.78L736.52 672.052C739.98 674.054 743.524 676.056 746.984 677.998L746.224 678.726ZM725.297 666.712C721.837 664.71 718.378 662.647 715.002 660.584L715.846 659.856C719.221 661.919 722.681 663.982 726.141 665.984L725.297 666.712ZM704.707 654.395C701.332 652.332 697.872 650.208 694.581 648.084L695.425 647.356C698.801 649.48 702.176 651.543 705.551 653.666L704.707 654.395ZM684.54 641.713C681.249 639.589 677.873 637.405 674.582 635.221L675.511 634.493C678.802 636.677 682.093 638.801 685.468 640.924L684.54 641.713ZM664.794 628.668C661.587 626.483 658.296 624.238 655.09 622.054L656.018 621.386C659.225 623.571 662.516 625.816 665.722 628L664.794 628.668ZM645.47 615.319C642.263 613.074 639.141 610.768 636.019 608.523L636.947 607.855C640.07 610.1 643.276 612.406 646.398 614.651L645.47 615.319ZM626.568 601.606C623.446 599.3 620.324 596.934 617.286 594.628L618.299 593.96C621.336 596.266 624.459 598.633 627.496 600.938L626.568 601.606ZM608.257 587.589C605.219 585.223 602.266 582.796 599.312 580.43L600.325 579.762C603.278 582.128 606.316 584.555 609.27 586.922L608.257 587.589ZM590.452 573.209C587.499 570.782 584.629 568.294 581.76 565.867L582.773 565.26C585.642 567.687 588.511 570.175 591.465 572.602L590.452 573.209ZM573.153 558.465C570.284 555.977 567.5 553.428 564.715 550.941L565.728 550.334C568.512 552.822 571.297 555.37 574.166 557.797L573.153 558.465ZM556.445 543.356C553.745 540.808 550.96 538.259 548.344 535.711L549.441 535.104C552.057 537.652 554.842 540.261 557.542 542.749L556.445 543.356ZM540.412 527.944C537.797 525.335 535.181 522.726 532.649 520.117L533.746 519.571C536.278 522.18 538.894 524.789 541.509 527.398L540.412 527.944ZM525.055 512.168C522.523 509.498 520.076 506.828 517.629 504.159L518.726 503.613C521.173 506.282 523.62 508.952 526.152 511.622L525.055 512.168ZM510.287 496.028C507.925 493.298 505.478 490.567 503.199 487.837L504.381 487.351C506.659 490.082 509.022 492.812 511.469 495.543L510.287 496.028ZM496.364 479.585C494.086 476.793 491.807 474.002 489.698 471.211L490.879 470.726C493.073 473.517 495.352 476.308 497.546 479.038L496.364 479.585ZM483.116 462.838C481.006 460.047 478.897 457.195 476.787 454.343L477.968 453.918C479.994 456.77 482.103 459.622 484.297 462.413L483.116 462.838ZM470.711 445.788C468.686 442.936 466.745 440.023 464.805 437.111L465.986 436.686C467.927 439.538 469.868 442.45 471.893 445.302L470.711 445.788ZM459.067 428.373C457.21 425.461 455.354 422.488 453.582 419.575L454.847 419.211C456.619 422.124 458.476 425.097 460.332 428.009L459.067 428.373ZM448.35 410.716C446.662 407.743 444.974 404.77 443.287 401.797L444.553 401.433C446.156 404.406 447.843 407.379 449.616 410.352L448.35 410.716ZM438.477 392.817C436.874 389.843 435.355 386.749 433.92 383.776L435.186 383.472C436.705 386.446 438.224 389.54 439.743 392.513L438.477 392.817ZM429.532 374.614C428.098 371.58 426.748 368.485 425.397 365.451L426.663 365.148C428.013 368.182 429.363 371.276 430.798 374.31L429.532 374.614ZM421.431 356.228C420.166 353.134 418.9 350.039 417.803 346.945L419.069 346.702C420.25 349.797 421.516 352.891 422.697 355.986L421.431 356.228ZM414.343 337.661C413.246 334.567 412.149 331.412 411.137 328.317L412.402 328.074C413.415 331.169 414.512 334.324 415.609 337.419L414.343 337.661ZM408.268 318.912C407.339 315.757 406.411 312.602 405.567 309.447L406.917 309.265C407.761 312.42 408.689 315.575 409.618 318.669L408.268 318.912ZM403.036 299.981C402.276 296.826 401.517 293.61 400.842 290.455L402.192 290.333C402.867 293.489 403.626 296.704 404.386 299.799L403.036 299.981ZM398.901 280.928C398.31 277.773 397.72 274.557 397.213 271.341L398.563 271.22C399.07 274.375 399.66 277.591 400.251 280.746L398.901 280.928ZM395.694 261.755C395.272 258.599 394.851 255.323 394.513 252.168L395.863 252.107C396.201 255.323 396.623 258.539 397.045 261.694L395.694 261.755ZM393.5 242.581C393.247 239.365 392.994 236.149 392.825 232.933L394.176 232.872C394.344 236.088 394.597 239.304 394.851 242.459L393.5 242.581ZM392.319 223.285C392.235 220.07 392.15 216.854 392.066 213.638H393.416C393.416 216.854 393.5 220.07 393.669 223.285H392.319ZM393.5 203.99H392.15C392.235 200.774 392.319 197.558 392.403 194.343H393.754C393.669 197.558 393.585 200.835 393.5 203.99ZM394.344 184.756L392.994 184.695C393.247 181.479 393.5 178.263 393.754 175.047L395.104 175.108C394.851 178.385 394.597 181.6 394.344 184.756ZM396.201 165.582L394.851 165.521C395.272 162.305 395.694 159.089 396.201 155.934L397.551 156.055C397.045 159.15 396.623 162.366 396.201 165.582ZM399.07 146.408L397.72 146.286C398.31 143.131 398.901 139.915 399.576 136.76L400.926 136.882C400.251 140.037 399.66 143.253 399.07 146.408ZM402.951 127.416L401.601 127.234C402.361 124.079 403.12 120.863 403.964 117.768L405.314 117.95C404.555 121.045 403.711 124.2 402.951 127.416ZM407.93 108.485L406.58 108.303C407.508 105.148 408.521 101.992 409.533 98.8978L410.799 99.1405C409.871 102.174 408.858 105.33 407.93 108.485ZM414.09 89.7356L412.824 89.4929C414.006 86.3377 415.187 83.1825 416.368 80.2093L417.634 80.452C416.453 83.4859 415.271 86.5804 414.09 89.7356ZM421.516 71.2291L420.25 70.9257C422.866 65.0401 424.638 61.8242 424.722 61.7635L425.988 62.1276C425.904 62.1883 424.216 65.4041 421.516 71.2291Z" fill="white" fill-opacity="0.2"/>
<path d="M371.141 758.275C314.688 574.545 343.041 419.091 455.44 296.281C495.354 252.654 546.068 213.214 606.234 178.932C654.333 151.506 708.507 127.417 767.238 107.212C867.317 72.8078 947.06 61.5825 947.819 61.5219L948.073 62.4927C947.313 62.614 867.655 73.7786 767.744 108.122C675.597 139.795 546.744 198.288 456.537 296.827C344.307 419.394 316.038 574.606 372.407 758.032L371.141 758.275Z" fill="white" fill-opacity="0.2"/>
</g>
</g>
</g>
<defs>
<filter id="filter0_f_37_31" x="722.585" y="-144.132" width="1405.67" height="1340.13" filterUnits="userSpaceOnUse" color-interpolation-filters="sRGB">
<feFlood flood-opacity="0" result="BackgroundImageFix"/>
<feBlend mode="normal" in="SourceGraphic" in2="BackgroundImageFix" result="shape"/>
<feGaussianBlur stdDeviation="225" result="effect1_foregroundBlur_37_31"/>
</filter>
<filter id="filter1_f_37_31" x="-763.184" y="-47.4254" width="1318.38" height="1141.77" filterUnits="userSpaceOnUse" color-interpolation-filters="sRGB">
<feFlood flood-opacity="0" result="BackgroundImageFix"/>
<feBlend mode="normal" in="SourceGraphic" in2="BackgroundImageFix" result="shape"/>
<feGaussianBlur stdDeviation="225" result="effect1_foregroundBlur_37_31"/>
</filter>
<filter id="filter2_f_37_31" x="177" y="-266" width="1192.84" height="1338.4" filterUnits="userSpaceOnUse" color-interpolation-filters="sRGB">
<feFlood flood-opacity="0" result="BackgroundImageFix"/>
<feBlend mode="normal" in="SourceGraphic" in2="BackgroundImageFix" result="shape"/>
<feGaussianBlur stdDeviation="225" result="effect1_foregroundBlur_37_31"/>
</filter>
<clipPath id="clip0_37_31">
<rect width="1440" height="818" fill="white"/>
</clipPath>
<clipPath id="clip1_37_31">
<rect width="1510.83" height="887" fill="white" transform="translate(-11.7429 -48)"/>
</clipPath>
</defs>
</svg>
