<svg width="34" height="58" viewBox="0 0 34 58" fill="none" xmlns="http://www.w3.org/2000/svg">
<path d="M27.4916 57.1327C31.0238 57.1327 33.8969 54.2595 33.8969 50.7286V6.40572C33.8969 2.87359 31.0233 0.000442511 27.4916 0.000442511L6.40528 0C2.87315 0 0 2.8736 0 6.40528V50.7282C0 54.2599 2.8736 57.1322 6.40528 57.1322L27.4916 57.1327ZM16.9473 55.0013C16.2963 55.0013 15.7655 54.4701 15.7655 53.8177C15.7655 53.1653 16.2958 52.6341 16.9473 52.6341C17.5997 52.6341 18.1318 53.1653 18.1318 53.8177C18.1318 54.4701 17.5997 55.0013 16.9473 55.0013ZM14.7619 2.82037V2.325H19.1349V3.31574H14.7619V2.82037ZM3.67582 47.7728V8.36852C3.67582 6.86475 4.90049 5.64087 6.40562 5.64087H27.4908C28.996 5.64087 30.2206 6.86475 30.2206 8.36852L30.2211 47.7728C30.2211 49.2775 28.9964 50.5014 27.4913 50.5014H6.40493C4.8998 50.5014 3.67513 49.2775 3.67513 47.7728H3.67582Z" fill="#CB8CF3"/>
</svg>
