<svg width="22" height="17" viewBox="0 0 22 17" fill="none" xmlns="http://www.w3.org/2000/svg">
<path d="M8.17292 11.2975C8.76758 11.2975 9.24965 10.8154 9.24965 10.2208C9.24965 9.62611 8.76758 9.14404 8.17292 9.14404C7.57826 9.14404 7.09619 9.62611 7.09619 10.2208C7.09619 10.8154 7.57826 11.2975 8.17292 11.2975Z" fill="#7780A1"/>
<path d="M13.9156 11.2975C14.5103 11.2975 14.9923 10.8154 14.9923 10.2208C14.9923 9.62611 14.5103 9.14404 13.9156 9.14404C13.3209 9.14404 12.8389 9.62611 12.8389 10.2208C12.8389 10.8154 13.3209 11.2975 13.9156 11.2975Z" fill="#7780A1"/>
<path d="M6.23486 4.47826C7.79096 3.99056 9.41356 3.74838 11.0443 3.76044C12.6749 3.74838 14.2975 3.99056 15.8536 4.47826" stroke="#7780A1" stroke-width="1.3" stroke-linecap="round" stroke-linejoin="round"/>
<path d="M15.8536 13.092C14.2975 13.5797 12.6749 13.8219 11.0443 13.8099C9.41356 13.8219 7.79096 13.5797 6.23486 13.092" stroke="#7780A1" stroke-width="1.3" stroke-linecap="round" stroke-linejoin="round"/>
<path d="M13.467 13.6395L14.5527 15.793C14.6225 15.9398 14.7414 16.0578 14.8887 16.1265C15.0361 16.1953 15.2028 16.2106 15.3602 16.1698C17.5586 15.6314 19.4608 14.6983 20.8426 13.4959C20.9468 13.404 21.0224 13.2842 21.0606 13.1506C21.0987 13.017 21.0978 12.8753 21.0579 12.7422L18.0162 2.58509C17.9866 2.48114 17.933 2.38559 17.8597 2.30611C17.7865 2.22664 17.6956 2.16545 17.5944 2.12748C16.7351 1.77491 15.8463 1.49868 14.9385 1.30198C14.7641 1.26378 14.5816 1.29114 14.4261 1.37886C14.2705 1.46657 14.1527 1.60849 14.0951 1.77754L13.3862 3.92202" stroke="#7780A1" stroke-width="1.3" stroke-linecap="round" stroke-linejoin="round"/>
<path d="M8.62155 13.6393L7.53585 15.7927C7.46599 15.9396 7.34717 16.0575 7.19981 16.1263C7.05244 16.1951 6.88573 16.2104 6.7283 16.1696C4.52998 15.6312 2.62776 14.698 1.24596 13.4957C1.14178 13.4038 1.06613 13.2839 1.02796 13.1504C0.989798 13.0168 0.990717 12.8751 1.03061 12.742L4.07237 2.58484C4.10197 2.4809 4.15555 2.38535 4.22879 2.30587C4.30203 2.22639 4.3929 2.16521 4.49409 2.12723C5.35346 1.77467 6.2422 1.49844 7.15002 1.30174C7.32448 1.26353 7.50689 1.2909 7.66246 1.37861C7.81803 1.46633 7.93586 1.60825 7.99346 1.7773L8.7023 3.92178" stroke="#7780A1" stroke-width="1.3" stroke-linecap="round" stroke-linejoin="round"/>
<path d="M8.17292 11.2975C8.76758 11.2975 9.24965 10.8154 9.24965 10.2208C9.24965 9.62611 8.76758 9.14404 8.17292 9.14404C7.57826 9.14404 7.09619 9.62611 7.09619 10.2208C7.09619 10.8154 7.57826 11.2975 8.17292 11.2975Z" fill="#7780A1"/>
<path d="M13.9156 11.2975C14.5103 11.2975 14.9923 10.8154 14.9923 10.2208C14.9923 9.62611 14.5103 9.14404 13.9156 9.14404C13.3209 9.14404 12.8389 9.62611 12.8389 10.2208C12.8389 10.8154 13.3209 11.2975 13.9156 11.2975Z" fill="#7780A1"/>
<path d="M6.23486 4.47826C7.79096 3.99056 9.41356 3.74838 11.0443 3.76044C12.6749 3.74838 14.2975 3.99056 15.8536 4.47826" stroke="#7780A1" stroke-width="1.3" stroke-linecap="round" stroke-linejoin="round"/>
<path d="M15.8536 13.092C14.2975 13.5797 12.6749 13.8219 11.0443 13.8099C9.41356 13.8219 7.79096 13.5797 6.23486 13.092" stroke="#7780A1" stroke-width="1.3" stroke-linecap="round" stroke-linejoin="round"/>
<path d="M13.467 13.6395L14.5527 15.793C14.6225 15.9398 14.7414 16.0578 14.8887 16.1265C15.0361 16.1953 15.2028 16.2106 15.3602 16.1698C17.5586 15.6314 19.4608 14.6983 20.8426 13.4959C20.9468 13.404 21.0224 13.2842 21.0606 13.1506C21.0987 13.017 21.0978 12.8753 21.0579 12.7422L18.0162 2.58509C17.9866 2.48114 17.933 2.38559 17.8597 2.30611C17.7865 2.22664 17.6956 2.16545 17.5944 2.12748C16.7351 1.77491 15.8463 1.49868 14.9385 1.30198C14.7641 1.26378 14.5816 1.29114 14.4261 1.37886C14.2705 1.46657 14.1527 1.60849 14.0951 1.77754L13.3862 3.92202" stroke="#7780A1" stroke-width="1.3" stroke-linecap="round" stroke-linejoin="round"/>
<path d="M8.62155 13.6393L7.53585 15.7927C7.46599 15.9396 7.34717 16.0575 7.19981 16.1263C7.05244 16.1951 6.88573 16.2104 6.7283 16.1696C4.52998 15.6312 2.62776 14.698 1.24596 13.4957C1.14178 13.4038 1.06613 13.2839 1.02796 13.1504C0.989798 13.0168 0.990717 12.8751 1.03061 12.742L4.07237 2.58484C4.10197 2.4809 4.15555 2.38535 4.22879 2.30587C4.30203 2.22639 4.3929 2.16521 4.49409 2.12723C5.35346 1.77467 6.2422 1.49844 7.15002 1.30174C7.32448 1.26353 7.50689 1.2909 7.66246 1.37861C7.81803 1.46633 7.93586 1.60825 7.99346 1.7773L8.7023 3.92178" stroke="#7780A1" stroke-width="1.3" stroke-linecap="round" stroke-linejoin="round"/>
</svg>
