<svg width="10" height="18" viewBox="0 0 10 18" fill="none" xmlns="http://www.w3.org/2000/svg">
<path d="M6 4.58491V7.48491H8.6C8.8 7.48491 8.9 7.68491 8.9 7.88491L8.5 9.78491C8.5 9.88491 8.3 9.98491 8.2 9.98491H6V17.2849H3V10.0849H1.3C1.1 10.0849 1 9.98491 1 9.78491V7.88491C1 7.68491 1.1 7.58491 1.3 7.58491H3V4.28491C3 2.58491 4.3 1.28491 6 1.28491H8.7C8.9 1.28491 9 1.38491 9 1.58491V3.98491C9 4.18491 8.9 4.28491 8.7 4.28491H6.3C6.1 4.28491 6 4.38491 6 4.58491Z" stroke="#7780A1" stroke-width="1.2" stroke-miterlimit="10" stroke-linecap="round" stroke-linejoin="round"/>
</svg>
