<svg width="17" height="17" viewBox="0 0 17 17" fill="none" xmlns="http://www.w3.org/2000/svg">
<path d="M8.75017 11.6869C7.00927 11.6869 5.598 10.2756 5.598 8.53474C5.598 6.79384 7.00927 5.38257 8.75017 5.38257C10.4911 5.38257 11.9023 6.79384 11.9023 8.53474C11.9023 10.2756 10.4911 11.6869 8.75017 11.6869Z" stroke="#7780A1" stroke-width="1.4" stroke-miterlimit="10"/>
<path d="M5.28261 1.28491H12.2174C14.3065 1.28491 16 2.97844 16 5.06752V12.0023C16 14.0914 14.3065 15.7849 12.2174 15.7849H5.28261C3.19353 15.7849 1.5 14.0914 1.5 12.0023V5.06752C1.5 2.97844 3.19353 1.28491 5.28261 1.28491Z" stroke="#7780A1" stroke-width="1.4" stroke-linecap="round" stroke-linejoin="round"/>
<path d="M4.652 5.383C4.12973 5.383 3.70635 4.95962 3.70635 4.43735C3.70635 3.91508 4.12973 3.4917 4.652 3.4917C5.17427 3.4917 5.59766 3.91508 5.59766 4.43735C5.59766 4.95962 5.17427 5.383 4.652 5.383Z" fill="#7780A1"/>
</svg>
