<svg width="15" height="17" viewBox="0 0 15 17" fill="none" xmlns="http://www.w3.org/2000/svg">
<path d="M5.93164 6.34424V15.565" stroke="#7780A1" stroke-width="1.63789" stroke-linecap="round" stroke-linejoin="round"/>
<path d="M1.32129 6.34424V15.565" stroke="#7780A1" stroke-width="1.63789" stroke-linecap="round" stroke-linejoin="round"/>
<path d="M5.93164 10.3783C5.93164 9.30841 6.35666 8.28233 7.11319 7.52579C7.86973 6.76926 8.89581 6.34424 9.96571 6.34424C11.0356 6.34424 12.0617 6.76926 12.8182 7.52579C13.5748 8.28233 13.9998 9.30841 13.9998 10.3783V15.565" stroke="#7780A1" stroke-width="1.63789" stroke-linecap="round" stroke-linejoin="round"/>
<path d="M1.5 3.28491C2.32843 3.28491 3 2.61334 3 1.78491C3 0.956485 2.32843 0.284912 1.5 0.284912C0.671573 0.284912 0 0.956485 0 1.78491C0 2.61334 0.671573 3.28491 1.5 3.28491Z" fill="#7780A1"/>
</svg>
