<svg width="80" height="80" viewBox="0 0 80 80" fill="none" xmlns="http://www.w3.org/2000/svg">
<g clip-path="url(#clip0_54_784)">
<path d="M34.4916 79.1327C38.0238 79.1327 40.8969 76.2595 40.8969 72.7286V28.4057C40.8969 24.8736 38.0233 22.0004 34.4916 22.0004L13.4053 22C9.87315 22 7 24.8736 7 28.4053V72.7282C7 76.2599 9.8736 79.1322 13.4053 79.1322L34.4916 79.1327ZM23.9473 77.0013C23.2963 77.0013 22.7655 76.4701 22.7655 75.8177C22.7655 75.1653 23.2958 74.6341 23.9473 74.6341C24.5997 74.6341 25.1318 75.1653 25.1318 75.8177C25.1318 76.4701 24.5997 77.0013 23.9473 77.0013ZM21.7619 24.8204V24.325H26.1349V25.3157H21.7619V24.8204ZM10.6758 69.7728V30.3685C10.6758 28.8647 11.9005 27.6409 13.4056 27.6409H34.4908C35.996 27.6409 37.2206 28.8647 37.2206 30.3685L37.2211 69.7728C37.2211 71.2775 35.9964 72.5014 34.4913 72.5014H13.4049C11.8998 72.5014 10.6751 71.2775 10.6751 69.7728H10.6758Z" fill="#CB8CF3"/>
<path d="M27.826 49.461C27.826 48.7102 27.826 48.0911 27.826 47.2869C29.9253 48.7814 31.8823 50.1726 33.9141 51.6208C31.8717 53.0725 29.9182 54.4674 27.8402 55.944C27.8402 55.179 27.8402 54.5634 27.8402 53.834C26.3814 53.834 24.9866 53.834 23.5419 53.834C23.5419 53.4248 23.5419 53.1188 23.5419 52.7452C25.3175 52.7452 27.0859 52.7452 28.8899 52.7452C28.9255 53.0405 28.9611 53.3181 29.0109 53.7273C30.0072 53.0227 30.9359 52.3645 31.9891 51.6208C30.9786 50.902 30.0392 50.2331 29.018 49.5072C28.9682 49.8951 28.9362 50.1691 28.8863 50.5462C25.9864 50.5462 23.0936 50.5462 20.1225 50.5462C20.1225 51.2721 20.1225 51.8912 20.1225 52.7203C18.0196 51.2258 16.0626 49.8346 14.0095 48.3757C16.0341 46.9311 17.9876 45.5363 20.0976 44.0347C20.0976 44.8282 20.0976 45.4651 20.0976 46.1839C21.5814 46.1839 22.9513 46.1839 24.3745 46.1839C24.3745 46.5682 24.3745 46.8671 24.3745 47.23C22.5848 47.23 20.8163 47.23 19.023 47.23C18.9874 46.9204 18.9554 46.6464 18.9127 46.2586C17.9022 46.9774 16.9699 47.6356 15.9309 48.3722C16.9521 49.0945 17.8951 49.7634 18.9198 50.4893C18.9625 50.0872 18.991 49.8132 19.0301 49.461C21.9301 49.461 24.8015 49.461 27.826 49.461Z" fill="#C98BF0"/>
<path d="M33.2877 52.9409C32.2061 57.716 26.9257 60.8295 22.0154 59.8047C15.9914 58.5415 13.5931 53.0085 14.0557 49.4326C14.8385 49.8987 15.4541 50.3008 15.6391 51.3611C16.2653 54.9691 18.4287 57.3495 21.9834 58.2106C25.506 59.0646 28.4095 57.8868 30.7472 55.1079C31.4553 54.2681 32.4338 53.6561 33.2877 52.9409Z" fill="#C98BF0"/>
<path d="M14.6287 47.0628C15.3012 43.4903 19.5176 39.3664 25.1823 40.0816C30.8398 40.7932 34.2735 45.8174 33.9034 50.5391C33.1242 50.1264 32.4766 49.7919 32.3093 48.7494C31.7258 45.12 29.5873 42.7253 26.054 41.8109C22.5065 40.8929 19.5674 42.0742 17.1906 44.8567C16.4647 45.7035 15.4897 46.3333 14.6287 47.0628Z" fill="#C98BF0"/>
</g>
<defs>
<clipPath id="clip0_54_784">
<rect width="79.2593" height="79.2593" fill="white" transform="translate(0.199951)"/>
</clipPath>
</defs>
</svg>
