<svg width="60" height="61" viewBox="0 0 60 61" fill="none" xmlns="http://www.w3.org/2000/svg">
<path d="M36.9998 6.84002C38.2492 6.17929 39.4129 5.36781 40.4648 4.4242C38.3897 2.68508 35.9235 1.47547 33.2776 0.900024C35.0105 2.52555 36.2926 4.57185 36.9998 6.84002Z" fill="#CB8CF3"/>
<path d="M41.9305 5.77094C40.6723 6.94219 39.2642 7.94056 37.7424 8.74094H37.6235H37.624C38.3103 11.3534 38.6794 14.0392 38.7227 16.74H46.6427C46.4204 12.6409 44.7502 8.75372 41.9305 5.77094Z" fill="#CB8CF3"/>
<path d="M12.9829 16.74H20.9029C20.9524 14.0656 21.3215 11.4068 22.0016 8.81997L21.8929 8.70108C20.369 7.9051 18.9605 6.90584 17.7053 5.73108C14.8727 8.72314 13.199 12.6258 12.9829 16.74Z" fill="#CB8CF3"/>
<path d="M17.6953 29.6892C18.9536 28.518 20.3617 27.5196 21.8834 26.7192L22.0023 26.6697H22.0019C21.3195 24.0732 20.9504 21.4046 20.9032 18.7201H12.9832C13.2055 22.8193 14.8757 26.7065 17.6953 29.6892Z" fill="#CB8CF3"/>
<path d="M22.6259 6.84002C23.333 4.57185 24.6152 2.52555 26.3481 0.900024C23.7052 1.46662 21.239 2.66607 19.1609 4.39467C20.211 5.34887 21.3746 6.16999 22.6259 6.84002Z" fill="#CB8CF3"/>
<path d="M35.7528 25.8978C36.3521 23.5501 36.6845 21.1423 36.7428 18.7202H22.8828C22.9429 21.1356 23.2748 23.5367 23.8728 25.8779C27.7086 24.4689 31.9219 24.4755 35.7528 25.8978Z" fill="#CB8CF3"/>
<path d="M35.7528 9.57214C33.8524 10.2819 31.841 10.647 29.8128 10.6514C27.7846 10.647 25.7733 10.2819 23.8728 9.57214C23.2731 11.9164 22.9411 14.3211 22.8828 16.74H36.7428C36.6845 14.3211 36.3526 11.9164 35.7528 9.57214Z" fill="#CB8CF3"/>
<path d="M29.8128 1.54352C27.8328 1.54352 25.7835 3.81079 24.427 7.63196C27.8978 8.94329 31.7278 8.94329 35.1985 7.63196C33.8422 3.81079 31.7927 1.54352 29.8127 1.54352H29.8128Z" fill="#CB8CF3"/>
<path d="M33.2773 34.56C35.9202 33.9934 38.3864 32.7939 40.4645 31.0654C39.4144 30.1112 38.2508 29.29 36.9995 28.62C36.2924 30.8882 35.0102 32.9345 33.2773 34.56Z" fill="#CB8CF3"/>
<path d="M19.1604 31.065C21.2385 32.7935 23.7047 33.9931 26.3476 34.5597C24.6147 32.9342 23.3325 30.8879 22.6254 28.6197C21.3742 29.2897 20.2105 30.1109 19.1604 31.065Z" fill="#CB8CF3"/>
<path d="M46.6427 18.72H38.7227C38.6732 21.3944 38.3042 24.0532 37.624 26.64C37.6651 26.6559 37.7053 26.6758 37.7425 26.6993C39.2664 27.4957 40.6749 28.4945 41.9306 29.6693C44.7464 26.6913 46.4157 22.8122 46.6427 18.72Z" fill="#CB8CF3"/>
<path d="M39.7129 48.42C39.9754 48.42 40.2273 48.3157 40.413 48.1301C40.5986 47.9445 40.7029 47.6925 40.7029 47.43V45.45H51.7317C52.0557 46.7052 52.9737 47.7222 54.1886 48.1729C55.404 48.6237 56.7631 48.4509 57.8273 47.7106C58.8915 46.9703 59.5258 45.7563 59.5258 44.46C59.5258 43.1637 58.8916 41.9496 57.8273 41.2094C56.763 40.4693 55.404 40.2963 54.1886 40.7471C52.9737 41.1979 52.0556 42.2149 51.7317 43.47H40.7029V41.49C40.7029 41.2275 40.5986 40.9756 40.413 40.79C40.2273 40.6043 39.9754 40.5 39.7129 40.5H30.8029V33.7089C32.4461 33.095 34.0602 31.016 35.1987 27.828C31.7279 26.5167 27.8979 26.5167 24.4272 27.828C25.5656 31.016 27.1695 33.095 28.823 33.7089V40.5H19.913C19.3663 40.5 18.923 40.9433 18.923 41.49V43.47H7.89417C7.57021 42.2148 6.6522 41.1979 5.43727 40.7471C4.22189 40.2963 2.86282 40.4692 1.7986 41.2094C0.734377 41.9497 0.100098 43.1637 0.100098 44.46C0.100098 45.7563 0.73432 46.9704 1.7986 47.7106C2.86288 48.4508 4.22189 48.6237 5.43727 48.1729C6.6522 47.7221 7.57024 46.7051 7.89417 45.45H18.923V47.43C18.923 47.6925 19.0273 47.9445 19.2129 48.1301C19.3986 48.3157 19.6505 48.42 19.913 48.42H28.823V52.38H11.993C11.4463 52.38 11.003 52.8233 11.003 53.37V55.35H7.89417C7.57021 54.0948 6.6522 53.0779 5.43727 52.6271C4.22189 52.1763 2.86282 52.3491 1.7986 53.0894C0.734377 53.8297 0.100098 55.0437 0.100098 56.34C0.100098 57.6363 0.73432 58.8504 1.7986 59.5906C2.86288 60.3308 4.22189 60.5037 5.43727 60.0529C6.6522 59.6021 7.57024 58.5851 7.89417 57.33H11.003V59.31C11.003 59.5725 11.1073 59.8244 11.2929 60.0101C11.4785 60.1957 11.7305 60.3 11.993 60.3H47.633C47.8955 60.3 48.1474 60.1957 48.3331 60.0101C48.5187 59.8244 48.623 59.5725 48.623 59.31V57.33H51.7318C52.0558 58.5852 52.9738 59.6021 54.1887 60.0529C55.4041 60.5037 56.7632 60.3309 57.8274 59.5906C58.8916 58.8503 59.5259 57.6363 59.5259 56.34C59.5259 55.0437 58.8917 53.8296 57.8274 53.0894C56.7631 52.3492 55.4041 52.1763 54.1887 52.6271C52.9738 53.0779 52.0558 54.0949 51.7318 55.35H48.623V53.37C48.623 53.1075 48.5187 52.8556 48.3331 52.6699C48.1474 52.4843 47.8955 52.38 47.633 52.38H30.803V48.42H39.7129Z" fill="#CB8CF3"/>
</svg>
