<svg width="18" height="16" viewBox="0 0 18 16" fill="none" xmlns="http://www.w3.org/2000/svg">
<path d="M8.12047 4.43001C8.12047 2.70036 9.57494 1.26161 11.3046 1.2852C11.9103 1.29219 12.5011 1.47398 13.006 1.80871C13.5109 2.14344 13.9084 2.61687 14.1506 3.17208H16.9259L14.3865 5.71152C14.2226 8.26241 13.0934 10.6551 11.2285 12.4032C9.36353 14.1514 6.90285 15.1236 4.3467 15.1224C1.83085 15.1224 1.20189 14.1789 1.20189 14.1789C1.20189 14.1789 3.71774 13.2355 4.97566 11.3486C4.97566 11.3486 -0.0560346 8.83274 1.20189 1.91416C1.20189 1.91416 4.3467 5.05897 8.12047 5.68793V4.43001Z" stroke="#7780A1" stroke-width="1.4" stroke-linecap="round" stroke-linejoin="round"/>
</svg>
