<svg width="84" height="84" viewBox="0 0 84 84" fill="none" xmlns="http://www.w3.org/2000/svg">
<circle cx="41.8657" cy="41.5" r="33.1343" stroke="black" stroke-width="4.58"/>
<path d="M23.4645 51.7223C24.1926 52.3394 25.2878 53.1228 26.5104 53.8C27.9871 54.6179 29.5805 55.2418 30.901 55.2818C34.461 55.3876 37.0999 54.2965 38.7839 52.6176C40.4687 50.9379 41.2394 48.63 40.9947 46.2118L23.4645 51.7223ZM23.4645 51.7223L25.7982 49.4468C25.9082 49.518 26.0181 49.5898 26.1282 49.6619C27.4477 50.5252 28.8079 51.4151 31.1354 51.4151C32.8031 51.4151 34.1678 50.9909 35.1245 50.1885C36.091 49.3778 36.5892 48.2237 36.5892 46.8847C36.5892 45.647 36.1977 44.6328 35.322 43.7572C34.4715 42.9067 33.1856 42.2087 31.4436 41.5219L31.4393 41.5203C29.2261 40.6712 27.4593 39.6211 26.2491 38.3012C25.0502 36.9937 24.3794 35.4027 24.3794 33.4147C24.3794 31.1328 25.2579 29.1658 26.8219 27.7579C28.3894 26.3467 30.6779 25.4693 33.5358 25.4421L23.4645 51.7223ZM38.103 26.4254C36.9998 25.8665 35.5533 25.4242 33.5359 25.4421L38.103 26.4254ZM38.103 26.4254C38.9729 26.8662 39.6258 27.3736 40.2139 27.8308M38.103 26.4254L40.2139 27.8308M40.2139 27.8308C40.2505 27.8592 40.2868 27.8875 40.3229 27.9155M40.2139 27.8308L40.3229 27.9155M40.3229 27.9155L38.5302 30.4205C37.5074 29.8197 35.8151 28.8469 33.4314 28.8469C31.7529 28.8469 30.4964 29.3319 29.6544 30.1066C28.8134 30.8803 28.4268 31.9063 28.4268 32.9031C28.4268 34.185 28.8878 35.1527 29.8432 35.9809C30.761 36.7765 32.1358 37.4436 33.9515 38.1941C36.2886 39.161 37.9393 40.1783 39.0587 41.4326C40.1671 42.6744 40.7879 44.1863 40.9947 46.2114L40.3229 27.9155Z" fill="#060D10" stroke="#CB8CF3"/>
<path d="M44.0126 51.7887C44.1794 51.9152 44.3525 52.0515 44.5342 52.1946C46.0147 53.36 48.0648 54.9739 51.8536 55.3906C55.2024 55.7583 57.5929 54.699 59.1541 53.0259C60.7301 51.3371 61.4997 48.9801 61.4997 46.71C61.4997 44.6714 61.0378 43.2272 60.0575 42.057C59.0608 40.8674 57.4846 39.9069 55.1395 38.9367C51.462 37.4191 49.421 35.5024 49.421 32.9093C49.421 31.9125 49.8076 30.8864 50.6485 30.1128C51.4906 29.3381 52.7471 28.8531 54.4255 28.8531C56.6301 28.8531 57.872 29.7032 58.7306 30.291C58.7924 30.3332 58.8521 30.3741 58.9101 30.4133L60.6928 27.9222C60.4734 27.7783 60.2524 27.621 60.0229 27.4577C58.7846 26.5766 57.3006 25.5206 54.5125 25.4482L44.0126 51.7887ZM44.0126 51.7887L46.3084 49.4114C46.4989 49.5373 46.6929 49.6701 46.8947 49.8084C46.9906 49.8741 47.0883 49.941 47.1883 50.009C47.6177 50.3011 48.0781 50.6049 48.5733 50.8786C49.5677 51.4281 50.7171 51.8643 52.0984 51.8643C53.7977 51.8643 55.1739 51.3096 56.1284 50.391C57.0816 49.4737 57.5834 48.2225 57.5834 46.8909C57.5834 45.6769 57.2415 44.5537 56.3834 43.6137C55.5357 42.685 54.2263 41.9814 52.3782 41.5089L52.378 41.5088C51.1549 41.1966 49.3861 40.169 47.9205 38.6868C46.4554 37.2051 45.3736 35.3513 45.3736 33.4209C45.3736 31.1364 46.2541 29.1171 47.8192 27.684C49.3847 26.2505 51.6664 25.3762 54.5124 25.4482L44.0126 51.7887Z" fill="#060D10" stroke="#CB8CF3"/>
<path d="M54.0511 22.1158V60.336H51.7426V26.3521L44.3931 43.1725L41.4857 43.1288L33.8304 26.4145V60.336H31.522V22.1158H35.4026L42.877 39.8159L50.7069 22.1158H54.0511Z" fill="#060D10"/>
<path d="M31.5161 22.1158L35.2595 29.7586L35.8959 27.7684L34.8977 23.6007L31.5161 22.1158Z" fill="#060D10"/>
<path d="M49.2412 25.5598L44.3623 36.4531L46.964 34.8996L50.6263 29.9832L49.2412 25.5598Z" fill="#060D10"/>
</svg>
