<svg width="95" height="95" viewBox="0 0 95 95" fill="none" xmlns="http://www.w3.org/2000/svg">
<path d="M41.1018 73.8599C45.3354 73.8599 48.7792 70.4162 48.7792 66.184V13.0587C48.7792 8.82508 45.3349 5.38133 41.1018 5.38133L15.8277 5.3808C11.5941 5.3808 8.15039 8.82509 8.15039 13.0582V66.1835C8.15039 70.4166 11.5947 73.8594 15.8277 73.8594L41.1018 73.8599ZM28.4634 71.3052C27.6831 71.3052 27.0468 70.6685 27.0468 69.8866C27.0468 69.1047 27.6825 68.468 28.4634 68.468C29.2454 68.468 29.8831 69.1047 29.8831 69.8866C29.8831 70.6685 29.2454 71.3052 28.4634 71.3052ZM25.844 8.76129V8.16754H31.0854V9.35504H25.844V8.76129ZM12.5562 62.6412V15.4113C12.5562 13.6089 14.0241 12.1419 15.8282 12.1419H41.1009C42.9049 12.1419 44.3728 13.6089 44.3728 15.4113L44.3733 62.6412C44.3733 64.4447 42.9054 65.9117 41.1014 65.9117H15.8273C14.0233 65.9117 12.5554 64.4447 12.5554 62.6412H12.5562Z" fill="white"/>
<path d="M33.1122 38.2955C33.1122 37.3956 33.1122 36.6535 33.1122 35.6896C35.6284 37.4809 37.9741 39.1484 40.4093 40.8842C37.9613 42.6243 35.6199 44.2961 33.1292 46.066C33.1292 45.1491 33.1292 44.4112 33.1292 43.537C31.3806 43.537 29.7088 43.537 27.9773 43.537C27.9773 43.0465 27.9773 42.6797 27.9773 42.2319C30.1054 42.2319 32.2251 42.2319 34.3874 42.2319C34.43 42.5859 34.4726 42.9185 34.5324 43.409C35.7265 42.5646 36.8396 41.7756 38.102 40.8842C36.8908 40.0227 35.7649 39.2209 34.5409 38.3509C34.4812 38.8158 34.4428 39.1442 34.3831 39.5962C30.9072 39.5962 27.4399 39.5962 23.8788 39.5962C23.8788 40.4663 23.8788 41.2083 23.8788 42.2021C21.3582 40.4108 19.0126 38.7433 16.5518 36.9947C18.9785 35.2631 21.3199 33.5913 23.8489 31.7916C23.8489 32.7426 23.8489 33.506 23.8489 34.3675C25.6274 34.3675 27.2693 34.3675 28.9753 34.3675C28.9753 34.8281 28.9753 35.1864 28.9753 35.6214C26.83 35.6214 24.7104 35.6214 22.5609 35.6214C22.5183 35.2504 22.4799 34.922 22.4287 34.4571C21.2175 35.3186 20.1001 36.1076 18.8548 36.9904C20.0788 37.8562 21.209 38.658 22.4372 39.528C22.4884 39.0461 22.5225 38.7177 22.5695 38.2955C26.0453 38.2955 29.487 38.2955 33.1122 38.2955Z" fill="white"/>
<path d="M39.6588 42.4665C38.3623 48.1899 32.0332 51.9217 26.1477 50.6934C18.9274 49.1794 16.0529 42.5476 16.6073 38.2614C17.5456 38.8201 18.2834 39.302 18.5051 40.5729C19.2558 44.8975 21.8488 47.7507 26.1094 48.7828C30.3316 49.8063 33.8117 48.3947 36.6137 45.0638C37.4624 44.0573 38.6352 43.3238 39.6588 42.4665Z" fill="white"/>
<path d="M17.2939 35.421C18.1 31.1391 23.1538 26.1961 29.9435 27.0533C36.7246 27.9063 40.8402 33.9283 40.3966 39.5877C39.4626 39.093 38.6864 38.6921 38.486 37.4425C37.7865 33.0924 35.2234 30.2221 30.9884 29.1261C26.7363 28.0257 23.2136 29.4417 20.3646 32.7768C19.4946 33.7918 18.326 34.5467 17.2939 35.421Z" fill="white"/>
</svg>
