<svg width="86" height="86" viewBox="0 0 86 86" fill="none" xmlns="http://www.w3.org/2000/svg">
<path d="M50.5549 17.2C51.9116 16.4825 53.1752 15.6014 54.3174 14.5767C52.0642 12.6883 49.3863 11.3748 46.5132 10.75C48.3949 12.5151 49.7871 14.7371 50.5549 17.2Z" fill="white"/>
<path d="M55.9092 16.0391C54.5429 17.3109 53.014 18.395 51.3615 19.2641H51.2324H51.2329C51.9782 22.1009 52.3789 25.0172 52.426 27.95H61.026C60.7846 23.4989 58.9709 19.278 55.9092 16.0391Z" fill="white"/>
<path d="M24.4761 27.95H33.0761C33.1298 25.046 33.5306 22.1588 34.2691 19.3499L34.1511 19.2209C32.4963 18.3565 30.9669 17.2715 29.6039 15.9958C26.5282 19.2448 24.7107 23.4825 24.4761 27.95Z" fill="white"/>
<path d="M29.5933 42.011C30.9596 40.7392 32.4886 39.6551 34.141 38.786L34.2701 38.7323H34.2696C33.5286 35.9128 33.1279 33.0151 33.0766 30.1001H24.4766C24.718 34.5512 26.5316 38.7721 29.5933 42.011Z" fill="white"/>
<path d="M34.9471 17.2C35.7149 14.7371 37.1071 12.5151 38.9888 10.75C36.119 11.3652 33.4411 12.6676 31.1846 14.5447C32.3248 15.5808 33.5884 16.4724 34.9471 17.2Z" fill="white"/>
<path d="M49.2011 37.894C49.8518 35.3447 50.2127 32.7302 50.2761 30.1002H35.2261C35.2913 32.723 35.6517 35.3302 36.3011 37.8724C40.4662 36.3425 45.0413 36.3496 49.2011 37.894Z" fill="white"/>
<path d="M49.2011 20.1667C47.1374 20.9374 44.9534 21.3339 42.7511 21.3387C40.5487 21.3339 38.3647 20.9375 36.3011 20.1667C35.6498 22.7122 35.2894 25.3234 35.2261 27.95H50.2761C50.2127 25.3234 49.8523 22.7122 49.2011 20.1667Z" fill="white"/>
<path d="M42.7511 11.4488C40.6011 11.4488 38.3758 13.9107 36.9028 18.06C40.6716 19.4839 44.8304 19.4839 48.5992 18.06C47.1264 13.9107 44.901 11.4488 42.751 11.4488H42.7511Z" fill="white"/>
<path d="M46.5132 47.3C49.383 46.6847 52.0609 45.3823 54.3174 43.5053C53.1772 42.4692 51.9136 41.5775 50.5549 40.85C49.7871 43.3129 48.3949 45.5349 46.5132 47.3Z" fill="white"/>
<path d="M31.1841 43.5049C33.4406 45.3818 36.1185 46.6844 38.9883 47.2996C37.1067 45.5346 35.7144 43.3126 34.9466 40.8496C33.5879 41.5772 32.3243 42.4689 31.1841 43.5049Z" fill="white"/>
<path d="M61.026 30.1H52.426C52.3722 33.004 51.9715 35.8911 51.2329 38.7C51.2775 38.7173 51.3212 38.7388 51.3615 38.7643C53.0163 39.6291 54.5457 40.7137 55.9092 41.9893C58.9668 38.7557 60.7794 34.5435 61.026 30.1Z" fill="white"/>
<path d="M53.5012 62.35C53.7863 62.35 54.0598 62.2367 54.2614 62.0351C54.4629 61.8336 54.5762 61.56 54.5762 61.275V59.125H66.5519C66.9037 60.4879 67.9005 61.5922 69.2198 62.0817C70.5395 62.5712 72.0153 62.3835 73.1709 61.5797C74.3265 60.7758 75.0152 59.4576 75.0152 58.05C75.0152 56.6424 74.3265 55.324 73.1709 54.5203C72.0152 53.7166 70.5395 53.5288 69.2198 54.0183C67.9005 54.5078 66.9037 55.6121 66.5519 56.975H54.5762V54.825C54.5762 54.5399 54.4629 54.2664 54.2614 54.0648C54.0598 53.8633 53.7863 53.75 53.5012 53.75H43.8262V46.3757C45.6104 45.7091 47.3631 43.4516 48.5994 39.99C44.8307 38.5661 40.6718 38.5661 36.9031 39.99C38.1393 43.4516 39.8809 45.7091 41.6763 46.3757V53.75H32.0013C31.4077 53.75 30.9263 54.2314 30.9263 54.825V56.975H18.9506C18.5988 55.612 17.602 54.5078 16.2827 54.0183C14.963 53.5288 13.4872 53.7165 12.3316 54.5203C11.176 55.3241 10.4873 56.6424 10.4873 58.05C10.4873 59.4576 11.176 60.7759 12.3316 61.5797C13.4873 62.3834 14.963 62.5712 16.2827 62.0817C17.602 61.5921 18.5988 60.4878 18.9506 59.125H30.9263V61.275C30.9263 61.56 31.0396 61.8336 31.2411 62.0351C31.4427 62.2367 31.7162 62.35 32.0013 62.35H41.6763V66.65H23.4013C22.8077 66.65 22.3263 67.1313 22.3263 67.725V69.875H18.9506C18.5988 68.512 17.602 67.4078 16.2827 66.9183C14.963 66.4288 13.4872 66.6164 12.3316 67.4203C11.176 68.2241 10.4873 69.5424 10.4873 70.95C10.4873 72.3575 11.176 73.6759 12.3316 74.4796C13.4873 75.2834 14.963 75.4711 16.2827 74.9816C17.602 74.4921 18.5988 73.3878 18.9506 72.0249H22.3263V74.1749C22.3263 74.46 22.4396 74.7336 22.6411 74.9351C22.8427 75.1367 23.1162 75.2499 23.4013 75.2499H62.1013C62.3864 75.2499 62.6599 75.1367 62.8615 74.9351C63.0631 74.7336 63.1763 74.46 63.1763 74.1749V72.0249H66.5521C66.9038 73.3879 67.9007 74.4922 69.2199 74.9816C70.5396 75.4711 72.0154 75.2835 73.171 74.4796C74.3266 73.6758 75.0153 72.3575 75.0153 70.95C75.0153 69.5424 74.3267 68.224 73.171 67.4203C72.0153 66.6165 70.5396 66.4288 69.2199 66.9183C67.9007 67.4078 66.9038 68.5121 66.5521 69.875H63.1763V67.725C63.1763 67.4399 63.0631 67.1664 62.8615 66.9648C62.6599 66.7632 62.3864 66.65 62.1013 66.65H43.8263V62.35H53.5012Z" fill="white"/>
</svg>
