<svg width="84" height="84" viewBox="0 0 84 84" fill="none" xmlns="http://www.w3.org/2000/svg">
<circle cx="41.5" cy="41.5" r="33.1343" stroke="white" stroke-width="4.58"/>
<path d="M23.0988 51.7222C23.8269 52.3393 24.922 53.1227 26.1447 53.8C27.6214 54.6179 29.2148 55.2417 30.5353 55.2817C34.0953 55.3875 36.7342 54.2964 38.4182 52.6175C40.103 50.9378 40.8737 48.6299 40.629 46.2117L23.0988 51.7222ZM23.0988 51.7222L25.4324 49.4468C25.5425 49.5179 25.6523 49.5898 25.7625 49.6618C27.0819 50.5251 28.4422 51.4151 30.7697 51.4151C32.4374 51.4151 33.8021 50.9908 34.7587 50.1884C35.7253 49.3777 36.2234 48.2236 36.2234 46.8847C36.2234 45.647 35.832 44.6327 34.9563 43.7571C34.1058 42.9066 32.8199 42.2087 31.0778 41.5219L31.0736 41.5202C28.8604 40.6711 27.0936 39.621 25.8834 38.3011C24.6845 36.9936 24.0137 35.4026 24.0137 33.4147C24.0137 31.1328 24.8922 29.1658 26.4561 27.7578C28.0237 26.3466 30.3122 25.4692 33.1701 25.4421L23.0988 51.7222ZM37.7373 26.4253C36.6341 25.8664 35.1876 25.4241 33.1702 25.4421L37.7373 26.4253ZM37.7373 26.4253C38.6072 26.8661 39.2601 27.3736 39.8482 27.8308M37.7373 26.4253L39.8482 27.8308M39.8482 27.8308C39.8848 27.8592 39.9211 27.8874 39.9572 27.9154M39.8482 27.8308L39.9572 27.9154M39.9572 27.9154L38.1645 30.4205C37.1417 29.8196 35.4494 28.8468 33.0656 28.8468C31.3872 28.8468 30.1307 29.3319 29.2886 30.1065C28.4477 30.8802 28.0611 31.9062 28.0611 32.9031C28.0611 34.1849 28.522 35.1526 29.4775 35.9808C30.3953 36.7764 31.7701 37.4435 33.5857 38.1941C35.9229 39.161 37.5735 40.1783 38.693 41.4325C39.8014 42.6744 40.4222 44.1863 40.629 46.2113L39.9572 27.9154Z" fill="white" stroke="#AD61EC"/>
<path d="M43.6469 51.7887C43.8136 51.9152 43.9868 52.0515 44.1685 52.1945C45.649 53.36 47.6991 54.9739 51.4878 55.3905C54.8367 55.7583 57.2272 54.6989 58.7884 53.0258C60.3643 51.337 61.134 48.9801 61.134 46.7099C61.134 44.6713 60.6721 43.2272 59.6917 42.057C58.6951 40.8674 57.1189 39.9069 54.7737 38.9366C51.0963 37.419 49.0552 35.5023 49.0552 32.9092C49.0552 31.9124 49.4419 30.8864 50.2828 30.1127C51.1249 29.3381 52.3813 28.853 54.0598 28.853C56.2644 28.853 57.5062 29.7031 58.3649 30.2909C58.4266 30.3332 58.4864 30.3741 58.5444 30.4132L60.327 27.9221C60.1077 27.7782 59.8867 27.621 59.6572 27.4577C58.4189 26.5765 56.9349 25.5206 54.1468 25.4481L43.6469 51.7887ZM43.6469 51.7887L45.9426 49.4113C46.1331 49.5372 46.3271 49.6701 46.5289 49.8083C46.6249 49.874 46.7226 49.941 46.8225 50.0089C47.252 50.301 47.7124 50.6049 48.2075 50.8785C49.202 51.428 50.3514 51.8642 51.7327 51.8642C53.4319 51.8642 54.8082 51.3095 55.7627 50.3909C56.7159 49.4736 57.2176 48.2224 57.2176 46.8909C57.2176 45.6769 56.8757 44.5537 56.0177 43.6137C55.17 42.6849 53.8606 41.9813 52.0125 41.5088L52.0123 41.5088C50.7892 41.1966 49.0203 40.1689 47.5548 38.6867C46.0897 37.205 45.0079 35.3513 45.0079 33.4208C45.0079 31.1364 45.8884 29.117 47.4535 27.6839C49.019 26.2505 51.3007 25.3761 54.1467 25.4481L43.6469 51.7887Z" fill="white" stroke="#AD61EC"/>
<path d="M53.6853 22.1158V60.336H51.3769V26.3521L44.0273 43.1725L41.12 43.1288L33.4647 26.4145V60.336H31.1562V22.1158H35.0369L42.5113 39.8159L50.3412 22.1158H53.6853Z" fill="white"/>
<path d="M31.1504 22.1158L34.8938 29.7586L35.5302 27.7683L34.5319 23.6007L31.1504 22.1158Z" fill="white"/>
<path d="M48.8755 25.5597L43.9966 36.453L46.5983 34.8995L50.2606 29.9832L48.8755 25.5597Z" fill="white"/>
</svg>
